<?xml version="1.0" encoding="UTF-8"?><svg id="a" xmlns="http://www.w3.org/2000/svg" width="157.71" height="125.74" viewBox="0 0 157.71 125.74"><path d="m119.24,59.64l4.37,13.91m0,0l-3.43,1.11-1.2-3.6m4.63,2.49l4.37-1.51m0,0l-4.37-14.59m4.37,14.59l4.68-1.82m-9.05-12.78l-8.12,3.14.94,2.82m7.18-5.96l4.84-1.87m0,0l4.84-1.87.85,3.74m-5.69-1.87l4.21,14.65m0,0c1.74-.75,2.96-1.4,3.12-1.82.16-.39.07-1.57-.15-3.13m-19.2-1.88l17.71-5.96m-17.71,5.96l1.35,4.07m16.35-10.02l.84,4.08m0,0l-17.2,5.94m17.2-5.94l.65,3.75m-17.85,2.19l1.2,3.6m0,0l16.65-5.79" style="fill:none; stroke:#263238;"/><path d="m120.65,11.18c.36.02,1.04-.17,1.36-.01s.76.6.98.86c.43.51.68,1.01,1.01,1.57.33.56.62.73,1.7.96.99.21,1.35-.18,1.97-.31s1.21-.36,1.73-.66c-.11.36-.32.69-.6.94l1.98-.31c-.51.93-1.71,1.42-2.89,1.65-.95.19-1.96.17-2.93-.06-.48-.12-.94-.32-1.33-.59s-.73-.6-.98-.98c-.38-.6-.47-1.29-.83-1.9-.27-.44-.66-.81-1.14-1.09s-.44,1.01-1.01.96" style="fill:#009b5d;"/><path d="m123.2,2.7l-4.48,21.65c-1.05,1.05-2.31.79-3.74-.56l4.73-22.15c1.33-.8,2.47-.29,3.5,1.06h0Z" style="fill:#fafafa;"/><path d="m123.18,2.78l-.04-.06-.12-.16c-.16-.21-.34-.41-.54-.59-.32-.3-.71-.52-1.14-.63-.3-.06-.6-.05-.89,0s-.57.17-.81.33v.02s-4.71,21.86-4.71,21.86l-.06.17-.02.05.04.04c.52.54,1.18.94,1.91,1.17.37.1.76.08,1.12-.03.33-.12.63-.32.88-.57v-.03s.02-.03.02-.03l3.14-15.4.91-4.54.23-1.22.05-.32c.02-.07.03-.1.01-.11s-.01.04-.04.11c-.04.1-.06.21-.08.32l-.27,1.23-.97,4.54-3.21,15.35.02-.05c-.23.23-.5.41-.8.52-.31.1-.66.11-.99.03-.68-.22-1.3-.6-1.8-1.12l.03.1.04-.18,4.6-21.89v.04c.21-.16.48-.27.75-.33.28-.06.57-.07.86-.02.42.1.81.31,1.13.6.27.25.52.51.75.8h0Z" style="fill:#263238;"/><path d="m114.99,23.94s.15-.17.46-.36c.2-.13.43-.21.68-.26s.52-.04.78,0,.52.13.76.26.45.29.62.47c.28.29.36.51.39.5s-.01-.24-.27-.57c-.17-.22-.4-.4-.65-.55s-.54-.25-.83-.29c-.28-.05-.57-.04-.86.01-.27.06-.52.17-.72.32-.17.1-.3.26-.36.46h0Z" style="fill:#263238;"/><path d="m115.51,23.58s.07.27.44.58c.22.18.47.32.74.42.17.06.34.09.51.11.19.03.38,0,.55-.07.08-.04.15-.1.2-.19.04-.08.05-.17.02-.26-.03-.08-.08-.16-.16-.22-.07-.07-.16-.11-.26-.15-.15-.06-.31-.07-.47-.04-.15.03-.27.12-.34.23-.02.05-.03.1-.02.15.01.06.03.11.07.15.03.04.07.07.11.08.04.02.09.03.14.03.16,0,.19-.08.17-.09s-.06.04-.17.02c-.03,0-.06-.02-.09-.03s-.05-.04-.07-.06c-.02-.03-.03-.07-.03-.1s0-.07.03-.1c.07-.08.16-.13.27-.14.12-.02.23,0,.34.04.06.02.12.05.16.1.05.04.08.09.11.14.01.05,0,.11-.02.16-.03.05-.07.09-.13.11-.27.09-.58.08-.87-.03-.25-.08-.49-.2-.71-.35-.19-.15-.37-.32-.54-.49h0Zm5.05-22.13c-.03.07-.06.14-.07.21l-.12.63-.41,2.34-1.37,7.68-1.31,7.69-.34,2.36-.08.64c-.01.08-.02.15-.01.23.03-.07.06-.14.07-.22l.12-.63.41-2.34,1.37-7.68,1.31-7.69.34-2.34.08-.64c.02-.08.03-.16.03-.25h0Z" style="fill:#263238;"/><path d="m120.97,12.2s-1.73-1.8-3.71-.8l.43-1.94s1.97-.85,3.67.99l-.38,1.76h0Z" style="fill:#009b5d;"/><path d="m3.81,92.52c0,.05,4.53.1,10.12.1l10.12-.1c0-.05-4.53-.1-10.12-.1l-10.12.1Zm-3.81,2.82c0,.05,4.54.1,10.12.1l10.12-.1c0-.05-4.53-.1-10.12-.1l-10.12.1Zm44.24-47.15c0,.06,3.7.1,8.26.1l8.26-.1c0-.06-3.7-.1-8.26-.1l-8.26.1Zm-3.1,2.24c0,.06,3.7.1,8.26.1l8.26-.1c0-.06-3.7-.1-8.26-.1l-8.26.1Z" style="fill:#263238;"/><path d="m95.6,24.21l7.68-1.8,12.43-6.04,1.03-.85,3.12,2.82-12.85,9.2-10.01,3.39s-1.41-6.72-1.41-6.72Z" style="fill:#ffbe9d;"/><path d="m52.3,100.81s-1.32-4.73-3.04-10.54l-3.21-10.5s1.32,4.73,3.04,10.54l3.2,10.49h0Z" style="fill:#263238;"/><path d="m52.3,100.81s-.53-4.88-1.28-10.9l-1.45-10.89s.54,4.9,1.28,10.91l1.44,10.88h0Z" style="fill:#263238;"/><path d="m52.31,100.81s.35-4.9.67-10.96l.5-10.96s-.35,4.9-.67,10.96l-.5,10.96Z" style="fill:#263238;"/><path d="m52.3,100.81s1.15-4.78,2.49-10.68l2.31-10.73c-.06,0-1.15,4.78-2.49,10.69,0,0-2.31,10.72-2.31,10.72Z" style="fill:#263238;"/><path d="m52.3,100.81s1.94-4.51,4.23-10.12l4.08-10.19s-1.92,4.51-4.23,10.12l-4.08,10.18h0Z" style="fill:#263238;"/><path d="m52.3,100.81s2.66-4.12,5.87-9.25l5.72-9.36s-2.66,4.12-5.87,9.27l-5.72,9.34Z" style="fill:#263238;"/><path d="m52.3,100.81s3.32-3.62,7.33-8.15l7.2-8.27s-3.32,3.62-7.33,8.16l-7.2,8.26Z" style="fill:#263238;"/><path d="m52.3,100.81s3.88-3.01,8.59-6.81l8.48-6.94s-3.87,3.01-8.58,6.81l-8.48,6.94h0Z" style="fill:#263238;"/><path d="m52.31,100.81s4.32-2.31,9.61-5.27l9.52-5.42s-4.32,2.31-9.61,5.28l-9.52,5.42Z" style="fill:#263238;"/><path d="m52.3,100.81s4.65-1.57,10.35-3.59l10.29-3.75s-4.65,1.54-10.35,3.59l-10.29,3.75h0Z" style="fill:#263238;"/><path d="m52.3,100.81s4.85-.77,10.8-1.8l10.77-1.97s-4.84.77-10.8,1.81l-10.77,1.97h0Z" style="fill:#263238;"/><path d="m52.3,100.81s4.9.06,10.95.03l10.95-.14s-4.9-.06-10.95-.03l-10.95.14h0Z" style="fill:#263238;"/><path d="m52.31,100.81s4.83.88,10.79,1.87l10.82,1.7s-4.82-.88-10.79-1.86l-10.82-1.7Z" style="fill:#263238;"/><path d="m52.31,100.81s4.62,1.68,10.33,3.65l10.38,3.49s-4.62-1.68-10.33-3.65c0,0-10.39-3.49-10.39-3.49Z" style="fill:#263238;"/><path d="m52.3,100.81s4.26,2.43,9.57,5.33l9.65,5.18s-4.26-2.43-9.58-5.33l-9.65-5.18h0Z" style="fill:#263238;"/><path d="m52.31,100.81s3.8,3.11,8.55,6.86l8.65,6.73s-3.8-3.11-8.55-6.86l-8.65-6.73h0Z" style="fill:#263238;"/><path d="m52.3,100.81s3.23,3.7,7.28,8.19l7.41,8.1s-3.23-3.7-7.28-8.2l-7.41-8.1h0Z" style="fill:#263238;"/><path d="m52.3,100.81s2.57,4.19,5.82,9.3l5.96,9.21s-2.57-4.19-5.82-9.3l-5.96-9.21Z" style="fill:#263238;"/><path d="m52.3,100.81s1.83,4.56,4.18,10.15l4.33,10.08s-1.83-4.56-4.18-10.15l-4.34-10.08Z" style="fill:#263238;"/><path d="m52.31,100.81s1.04,4.8,2.43,10.7l2.59,10.68s-1.04-4.8-2.43-10.7l-2.59-10.68Z" style="fill:#263238;"/><path d="m52.31,100.81s.23,4.91.61,10.96l.77,10.95s-.23-4.91-.61-10.96c0,0-.77-10.95-.77-10.95Z" style="fill:#263238;"/><path d="m52.3,100.81s-.6,4.88-1.23,10.91l-1.07,10.92s.6-4.88,1.23-10.91l1.06-10.92h0Z" style="fill:#263238;"/><path d="m52.3,100.81s-1.4,4.71-3.03,10.55l-2.87,10.59s1.41-4.71,3.04-10.55c0,0,2.87-10.59,2.87-10.59Z" style="fill:#263238;"/><path d="m52.3,100.81s-2.16,4.41-4.75,9.89l-4.6,9.95s2.16-4.4,4.75-9.89l4.6-9.95h0Z" style="fill:#263238;"/><path d="m52.3,100.81s-2.87,3.99-6.33,8.95l-6.2,9.05s2.87-3.98,6.33-8.95c0,0,6.2-9.05,6.2-9.05Z" style="fill:#263238;"/><path d="m52.3,100.81s-3.5,3.45-7.74,7.77l-7.62,7.88s3.49-3.44,7.74-7.77c0,0,7.62-7.88,7.62-7.88Z" style="fill:#263238;"/><path d="m52.3,100.81s-4.02,2.81-8.92,6.36l-8.85,6.49s4.02-2.81,8.93-6.36l8.84-6.49Z" style="fill:#263238;"/><path d="m52.3,100.81s-4.43,2.1-9.86,4.78l-9.79,4.92s4.43-2.1,9.86-4.77c0,0,9.78-4.93,9.78-4.93Z" style="fill:#263238;"/><path d="m52.3,100.81s-4.72,1.32-10.51,3.05l-10.47,3.21s4.72-1.32,10.52-3.05l10.47-3.21h0Z" style="fill:#263238;"/><path d="m52.3,100.81s-4.88.51-10.88,1.25l-10.86,1.41s4.88-.51,10.88-1.25l10.86-1.42h0Z" style="fill:#263238;"/><path d="m52.3,100.81s-4.89-.31-10.93-.59l-10.94-.43s4.89.31,10.93.59l10.94.43Z" style="fill:#263238;"/><path d="m52.3,100.81s-4.77-1.12-10.68-2.42l-10.71-2.25c0,.06,4.77,1.13,10.68,2.42l10.71,2.25Z" style="fill:#263238;"/><path d="m52.3,100.81s-4.51-1.93-10.13-4.18l-10.19-4.02s4.51,1.93,10.13,4.18l10.19,4.02Z" style="fill:#263238;"/><path d="m52.3,100.81s-4.13-2.64-9.28-5.81l-9.38-5.67s4.13,2.64,9.29,5.82l9.37,5.67h0Z" style="fill:#263238;"/><path d="m52.3,100.81s-3.63-3.3-8.18-7.29l-8.29-7.17s3.63,3.3,8.19,7.29l8.29,7.16h0Z" style="fill:#263238;"/><path d="m52.3,100.81s-3.03-3.86-6.85-8.56l-6.98-8.46s3.03,3.85,6.85,8.56l6.98,8.45h0Z" style="fill:#263238;"/><path d="m52.3,100.81s-2.34-4.31-5.33-9.59l-5.47-9.5s2.35,4.31,5.33,9.59l5.47,9.5Zm80.54,0s-1.32-4.73-3.05-10.54l-3.2-10.48c-.05.04,1.32,4.73,3.05,10.54l3.2,10.47h0Z" style="fill:#263238;"/><path d="m132.85,100.81s-.53-4.88-1.28-10.9l-1.45-10.89c-.05,0,.53,4.89,1.28,10.9l1.45,10.89Z" style="fill:#263238;"/><path d="m132.84,100.81s.35-4.9.67-10.95l.5-10.96s-.34,4.9-.67,10.95l-.5,10.96Z" style="fill:#263238;"/><path d="m132.84,100.81s1.15-4.78,2.48-10.68l2.31-10.73c-.06,0-1.15,4.78-2.48,10.69,0,0-2.31,10.72-2.31,10.72Z" style="fill:#263238;"/><path d="m132.84,100.81s1.92-4.51,4.23-10.12l4.08-10.19s-1.92,4.51-4.23,10.12l-4.08,10.18h0Z" style="fill:#263238;"/><path d="m132.84,100.81s2.67-4.12,5.86-9.25l5.72-9.36s-2.67,4.12-5.86,9.27l-5.72,9.34Z" style="fill:#263238;"/><path d="m132.83,100.81s3.32-3.62,7.31-8.15l7.23-8.27s-3.32,3.62-7.33,8.16l-7.2,8.26h0Z" style="fill:#263238;"/><path d="m132.84,100.81s3.87-3.01,8.58-6.81l8.48-6.94s-3.87,3.01-8.59,6.81l-8.48,6.94Z" style="fill:#263238;"/><path d="m132.84,100.81s4.32-2.31,9.61-5.27l9.52-5.42s-4.32,2.31-9.61,5.28l-9.52,5.42Z" style="fill:#263238;"/><path d="m132.84,100.81s4.65-1.57,10.34-3.59l10.3-3.75s-4.65,1.54-10.35,3.59c0,0-10.29,3.75-10.29,3.75Z" style="fill:#263238;"/><path d="m132.84,100.81s4.85-.77,10.8-1.8l10.77-1.97s-4.85.77-10.8,1.81l-10.76,1.97Z" style="fill:#263238;"/><path d="m132.84,100.81s4.9.06,10.95.03l10.93-.14s-4.9-.06-10.95-.03l-10.93.14Z" style="fill:#263238;"/><path d="m132.84,100.81s4.82.88,10.79,1.87l10.82,1.7s-4.82-.88-10.79-1.86l-10.82-1.7h0Z" style="fill:#263238;"/><path d="m132.84,100.81s4.61,1.68,10.33,3.65l10.38,3.49s-4.61-1.68-10.33-3.65c0,0-10.38-3.49-10.38-3.49Z" style="fill:#263238;"/><path d="m132.84,100.81s4.26,2.43,9.57,5.33l9.66,5.18s-4.27-2.43-9.58-5.32l-9.65-5.2Z" style="fill:#263238;"/><path d="m132.83,100.81s3.8,3.11,8.55,6.86l8.65,6.73s-3.78-3.11-8.55-6.85l-8.65-6.74h0Z" style="fill:#263238;"/><path d="m132.84,100.81s3.23,3.7,7.28,8.2l7.41,8.1s-3.23-3.7-7.28-8.2l-7.41-8.1Z" style="fill:#263238;"/><path d="m132.84,100.81s2.57,4.19,5.82,9.3l5.95,9.21s-2.56-4.19-5.82-9.3l-5.95-9.21Z" style="fill:#263238;"/><path d="m132.84,100.81s1.83,4.56,4.18,10.15l4.33,10.08s-1.83-4.56-4.18-10.15l-4.33-10.08h0Z" style="fill:#263238;"/><path d="m132.85,100.81s1.04,4.8,2.43,10.7l2.59,10.68c.06,0-1.04-4.8-2.43-10.7l-2.59-10.68Z" style="fill:#263238;"/><path d="m132.84,100.81s.23,4.91.61,10.96l.77,10.95s-.23-4.91-.61-10.96l-.77-10.95h0Z" style="fill:#263238;"/><path d="m132.85,100.81s-.6,4.88-1.23,10.91l-1.06,10.92s.6-4.88,1.23-10.91l1.06-10.92h0Z" style="fill:#263238;"/><path d="m132.84,100.81s-1.4,4.71-3.03,10.55l-2.87,10.59s1.4-4.71,3.03-10.55l2.87-10.59h0Z" style="fill:#263238;"/><path d="m132.84,100.81s-2.17,4.41-4.75,9.89l-4.6,9.95s2.17-4.4,4.75-9.89l4.6-9.95Z" style="fill:#263238;"/><path d="m132.84,100.81s-2.87,3.99-6.33,8.95l-6.2,9.05s2.87-3.98,6.33-8.95c0,0,6.2-9.05,6.2-9.05Z" style="fill:#263238;"/><path d="m132.84,100.81s-3.5,3.45-7.74,7.77l-7.62,7.88s3.5-3.44,7.74-7.77l7.62-7.88h0Z" style="fill:#263238;"/><path d="m132.84,100.81s-4.02,2.81-8.93,6.36l-8.85,6.49s4.02-2.81,8.93-6.36l8.85-6.49Z" style="fill:#263238;"/><path d="m132.84,100.81s-4.43,2.1-9.86,4.78l-9.8,4.92s4.43-2.1,9.86-4.77c0,0,9.8-4.93,9.8-4.93Z" style="fill:#263238;"/><path d="m132.84,100.81s-4.72,1.32-10.52,3.05l-10.47,3.21s4.72-1.32,10.52-3.05l10.47-3.21h0Z" style="fill:#263238;"/><path d="m132.84,100.81s-4.88.51-10.88,1.25l-10.86,1.41s4.88-.51,10.88-1.25l10.86-1.42Z" style="fill:#263238;"/><path d="m132.84,100.81s-4.89-.31-10.93-.59l-10.94-.43s4.89.31,10.93.59l10.94.43Z" style="fill:#263238;"/><path d="m132.84,100.81s-4.77-1.12-10.68-2.42l-10.72-2.25c-.01.06,4.77,1.13,10.68,2.42l10.71,2.25Z" style="fill:#263238;"/><path d="m132.84,100.81s-4.52-1.93-10.13-4.17l-10.19-4.02s4.52,1.93,10.13,4.18c0,0,10.19,4.02,10.19,4.02Z" style="fill:#263238;"/><path d="m132.84,100.81s-4.13-2.64-9.29-5.81l-9.37-5.67s4.13,2.64,9.29,5.82l9.37,5.67Z" style="fill:#263238;"/><path d="m132.84,100.81s-3.63-3.3-8.18-7.29l-8.3-7.17s3.63,3.3,8.18,7.29l8.3,7.16Z" style="fill:#263238;"/><path d="m132.84,100.81s-3.04-3.86-6.85-8.56l-6.98-8.46s3.03,3.85,6.85,8.56l6.98,8.45Z" style="fill:#263238;"/><path d="m132.84,100.81s-2.35-4.31-5.33-9.59l-5.48-9.5s2.35,4.31,5.33,9.59l5.48,9.5Zm24.87,0c0,4.93-1.46,9.75-4.19,13.85s-6.62,7.29-11.16,9.18c-4.54,1.89-9.54,2.38-14.37,1.42-4.82-.96-9.26-3.34-12.73-6.82-3.48-3.49-5.85-7.93-6.81-12.76-.96-4.84-.47-9.85,1.42-14.4,1.88-4.55,5.07-8.45,9.16-11.19,4.09-2.74,8.9-4.2,13.82-4.2,6.6,0,12.93,2.63,17.59,7.3,4.66,4.67,7.28,11.01,7.28,17.63Zm-2.1,0c0-4.51-1.33-8.92-3.84-12.68-2.5-3.75-6.06-6.68-10.22-8.41-4.16-1.73-8.74-2.18-13.16-1.3-4.42.88-8.48,3.06-11.66,6.25-3.19,3.19-5.35,7.26-6.23,11.68-.88,4.43-.43,9.02,1.3,13.19,1.72,4.17,4.64,7.73,8.39,10.24,3.74,2.51,8.15,3.85,12.65,3.85,6.04,0,11.83-2.4,16.1-6.68,4.27-4.28,6.67-10.09,6.67-16.14Z" style="fill:#263238;"/><path d="m155.62,100.81c0,4.51-1.33,8.93-3.84,12.68s-6.06,6.68-10.22,8.41c-4.16,1.73-8.74,2.18-13.16,1.3-4.42-.88-8.48-3.05-11.66-6.25-3.19-3.19-5.35-7.26-6.23-11.69-.88-4.43-.43-9.01,1.3-13.19,1.72-4.17,4.64-7.74,8.39-10.24s8.15-3.85,12.65-3.85c6.04,0,11.83,2.4,16.1,6.68,4.27,4.28,6.67,10.09,6.67,16.14Zm-.88,0c0-4.34-1.28-8.58-3.69-12.19-2.41-3.61-5.83-6.42-9.83-8.08-4-1.66-8.4-2.09-12.65-1.25-4.25.85-8.15,2.94-11.21,6.01-3.06,3.07-5.15,6.98-5.99,11.24-.85,4.26-.41,8.67,1.25,12.68,1.66,4.01,4.46,7.44,8.06,9.85,3.6,2.41,7.83,3.7,12.16,3.7,5.8,0,11.37-2.32,15.47-6.43s6.41-9.69,6.41-15.51h.02,0Z" style="fill:#e0e0e0;"/><path d="m77.17,100.81c0,4.93-1.46,9.75-4.19,13.85s-6.62,7.29-11.16,9.18c-4.54,1.89-9.54,2.38-14.37,1.42-4.82-.96-9.26-3.34-12.73-6.82-3.48-3.49-5.85-7.93-6.81-12.76-.96-4.84-.47-9.85,1.41-14.4,1.88-4.55,5.07-8.45,9.16-11.19,4.09-2.74,8.9-4.2,13.82-4.2,3.27,0,6.5.65,9.52,1.9,3.02,1.25,5.76,3.09,8.07,5.4s4.14,5.06,5.39,8.09c1.25,3.02,1.89,6.27,1.89,9.54Zm-2.1,0c0-4.51-1.33-8.92-3.84-12.68-2.5-3.75-6.06-6.68-10.22-8.41-4.16-1.73-8.74-2.18-13.16-1.3-4.42.88-8.48,3.06-11.66,6.25-3.19,3.19-5.35,7.26-6.23,11.68-.88,4.43-.43,9.02,1.3,13.19,1.72,4.17,4.64,7.73,8.39,10.24s8.15,3.85,12.65,3.85c6.04,0,11.83-2.4,16.1-6.68,4.27-4.28,6.67-10.09,6.67-16.14Z" style="fill:#263238;"/><path d="m75.07,100.81c0,4.51-1.33,8.93-3.84,12.68-2.5,3.75-6.06,6.68-10.22,8.41-4.16,1.73-8.74,2.18-13.16,1.3s-8.48-3.05-11.66-6.25c-3.19-3.19-5.35-7.26-6.23-11.69-.88-4.43-.43-9.01,1.3-13.19,1.72-4.17,4.64-7.74,8.39-10.24,3.74-2.51,8.15-3.85,12.65-3.85,6.04,0,11.83,2.4,16.1,6.68,4.27,4.28,6.67,10.09,6.67,16.14Zm-.87,0c0-4.34-1.28-8.58-3.69-12.19-2.4-3.61-5.82-6.42-9.83-8.08-4-1.66-8.4-2.1-12.65-1.25-4.25.85-8.15,2.94-11.21,6.01s-5.15,6.98-5.99,11.24c-.84,4.26-.41,8.67,1.25,12.68,1.66,4.01,4.46,7.44,8.07,9.85,3.6,2.41,7.83,3.7,12.17,3.7,2.88,0,5.72-.57,8.38-1.67s5.07-2.72,7.1-4.76c2.03-2.04,3.65-4.46,4.75-7.12,1.1-2.66,1.67-5.52,1.67-8.4Z" style="fill:#e0e0e0;"/><path d="m87.57,110.67c1.86,0,3.32-.52,4.34-1.54,1.85-1.84,1.65-4.63,1.62-4.97.58-3.55-5.48-4.84-5.73-4.89l-31.32-2.19c-.15-.03-4.23-.88-6.96.9-.96.63-1.23,1.69-.81,3.16.35,1.17,1.03,2.21,1.95,3.02.92.8,2.05,1.33,3.25,1.51l32.37,4.93c.43.05.86.08,1.29.08Zm-33.53-13.43c.8,0,1.6.07,2.39.22l31.32,2.18s5.95,1.27,5.38,4.48v.05s.28,2.91-1.51,4.69c-1.15,1.16-2.96,1.62-5.32,1.35-6.17-.69-24.67-3.68-32.35-4.93-1.13-.17-2.19-.66-3.06-1.41s-1.5-1.73-1.84-2.83c-.38-1.29-.15-2.21.65-2.73,1.31-.86,2.97-1.07,4.32-1.07h0Z" style="fill:#e0e0e0;"/><path d="m112.28,46.41l4.08,1.06c.43.29.61,1.26.33,1.81s-.95.66-1.33.74-3.98-1.8-3.98-1.8c0,0-.46-1.65.9-1.81h0Z" style="fill:#263238;"/><path d="m107.68,56.39l.31-.04c.62-.07,2.31-.14,2.82-.5.21-.16.38-.37.51-.61.13-.23.2-.49.22-.76.04-.46,0-.92-.08-1.38l-.19-.06-.61-1.42c1.51-.13,3.03-.13,4.55,0,.57-.44-.02.24.46-.29.35-.39.71-.86.54-1.34-.11-.22-.25-.41-.43-.58-.09-.08-.16-.18-.2-.29-.05-.11-.06-.23-.06-.35.05-.24.44-.52.61-.35.35.3.67.65.93,1.03.26.38.37.85.28,1.31-.14.44-.41.84-.77,1.14.53.13,1,.45,1.3.9,1.28,2.19-.72,4.52-3.08,5.96l1.37,4.24-1.7.92-1.4-4.44c-.12-.3-.19-.61-.23-.92,0-.46,1.27-1,1.27-1,0,0,3.31-2,2.81-3.77-.18-.62-1.82-.91-3.3-.85.13.48.2.97.2,1.46-.08.76-.44,1.46-1.01,1.97-.35.31-.76.54-1.21.67-1.28.33-2.61.44-3.93.32-.12-.02-.22-.08-.3-.17-.08-.09-.12-.2-.12-.32s.04-.23.12-.32c.08-.09.18-.15.3-.17h0Zm8.8-4.51h.05c.07-.08.12-.15-.05,0Zm-38.73,21.86l-2.38-6.26h2.07l2.05,5.78-1.73.47Z" style="fill:#9da7b3;"/><path d="m81.67,106.86c-1.34-3.29.23-7.05,3.51-8.4,3.28-1.34,7.03.23,8.37,3.51,0,0,0,0,0,0,1.34,3.29-.23,7.05-3.51,8.4-3.28,1.34-7.03-.23-8.37-3.51,0,0,0,0,0,0Z" style="fill:#263238;"/><path d="m82.86,104.31c.04-.39.1-.78.18-1.16.27-1.02.88-1.92,1.72-2.56.62-.47,1.34-.78,2.11-.89s1.55-.03,2.28.24c.42.15.8.37,1.15.64.38.27.71.61.98.99,1.2,1.63,1.2,3.85,0,5.48-.27.38-.6.71-.98.99-.35.27-.74.48-1.15.63-.61.22-1.26.31-1.91.27s-1.28-.22-1.86-.52c-.58-.3-1.08-.72-1.49-1.23-.4-.51-.7-1.1-.86-1.73-.09-.38-.15-.77-.18-1.16,0,.1,0,.2,0,.31,0,.12.01.24.03.37.01.17.04.33.08.5.22.89.68,1.7,1.34,2.33.66.63,1.49,1.06,2.38,1.24.84.16,1.72.09,2.53-.2.44-.16.85-.38,1.22-.65.39-.28.73-.62,1.02-1.01.61-.83.94-1.83.94-2.86s-.33-2.03-.94-2.86c-.57-.77-1.35-1.35-2.25-1.68-.81-.29-1.68-.36-2.53-.2-.9.17-1.72.6-2.38,1.24-.66.63-1.13,1.44-1.34,2.33-.04.16-.07.33-.08.5-.02.12-.03.24-.03.37,0,.1,0,.2,0,.3h0Zm-20.2-5.45h1.41v4.07h-1.41v-4.07Z" style="fill:#455a64;"/><path d="m77.88,75.47l.67.7-25.53,24.79-.67-.7,25.53-24.79Z" style="fill:#007dac;"/><path d="m27.04,95.21c-.92-.41-1.37-1.47-1.02-2.42,1.85-4.99,8.59-19.1,25.56-19.1,20.61,0,27.99,16.31,27.99,29.21l-1.82-.39s.99-27.06-26.26-27.06c-18.54,0-24.46,19.75-24.46,19.75Z" style="fill:#007dac;"/><path d="m94.57,103.88s-1.2-6.01-6.11-6.8-24.57,0-24.57,0c0,0-2.02.08-2.02,2.65l14.19.5,5.77,2.31s1.41-4.12,6.62-2.81c3.92.99,3.94,4.15,3.94,4.15h2.18s0-.01,0-.01Z" style="fill:#455a64;"/><path d="m82.95,90.95v-2.31c4.64,0,7.83-1.16,9.7-2.11,1.1-.53,2.1-1.24,2.95-2.1l.02-.02,18.65-20.34,2.2,1.04-19.13,20.86c-.34.39-4.6,4.98-14.39,4.98h0Z" style="fill:#007dac;"/><path d="m79.06,72.06l9.17,32.67-2.23.63-9.17-32.67,2.23-.63Z" style="fill:#007dac;"/><path d="m86.94,106.83l-34.8-4.93.33-2.31,33.59,4.76,31.08-34.07,1.71,1.57-31.9,34.98Z" style="fill:#007dac;"/><path d="m110.68,51.64h-6.64c-.39,0-.73.71-.73,1.58s.33,1.58.73,1.58l6.64-.49c1.4-1.64,0-2.67,0-2.67h0Z" style="fill:#263238;"/><path d="m107.69,108.57c-.1.12-.23.2-.38.25-.14.05-.3.05-.45.01s-.28-.12-.39-.23-.18-.25-.21-.4c-.84-3.77-2.26-13.81,3.81-22.47,6.73-9.6,15.58-11.43,20.42-12.11.45-.06.9.07,1.25.35.17.14.32.32.42.52.1.2.16.42.18.64,0,0-10.91.72-17.24,6.98-3.44,3.37-5.93,7.59-7.23,12.23s-1.36,9.54-.17,14.22h0s0,0,0,0Z" style="fill:#007dac;"/><path d="m132.12,101.74c-4.85-3.83-9.03-12.76-9.23-13.14l-.04-.1-8.6-24.44,1.92-1.04,8.85,24.65c.34.71,4.28,8.9,8.52,12.25,0,0-1.42,1.83-1.42,1.83Zm-58.3-22.32l-6.27-7.86h-27.14c-.2,0-.37-.12-.45-.3-.02-.06-.04-.12-.04-.19,0-.06.01-.13.04-.18.02-.06.06-.11.11-.16s.1-.08.16-.1c.06-.02.12-.04.18-.04h27.6l6.5,8.15s-.7.68-.7.68Z" style="fill:#007dac;"/><path d="m47.37,71l5.22,29.67-.95.17-5.23-29.67.96-.17Z" style="fill:#007dac;"/><path d="m137.14,100.95c0-.85-.25-1.69-.73-2.39-.47-.71-1.14-1.26-1.93-1.59s-1.65-.41-2.48-.25c-.83.17-1.6.58-2.2,1.18-.6.6-1.01,1.37-1.18,2.21-.17.84-.08,1.7.24,2.49.33.79.88,1.46,1.58,1.93.71.47,1.54.73,2.39.73,1.14,0,2.23-.46,3.04-1.26.81-.81,1.26-1.9,1.26-3.05h0Z" style="fill:#263238;"/><path d="m68.38,66.1c.15.82.81,4.31,2.46,4.67s13.42.2,15.22,0c1.15-.12,2.03-1.87-.58-2.24-3.76-.54-17.42-4.27-17.1-2.43h0Z" style="fill:#455a64;"/><path d="m116.19,63.01c-.02-.11-.04-.21-.07-.31l-.26-.87-.96-3.08-.04.1c1.23-.65,2.29-1.59,3.08-2.74l.09-.21.04-.07c.29-.55.41-1.17.35-1.78-.06-.58-.33-1.11-.77-1.5-.4-.33-.86-.56-1.36-.69-.42-.12-.86-.2-1.3-.24-.63-.07-1.27-.09-1.9-.06-.23,0-.39.03-.52.04-.06,0-.12.01-.18.03h.7c.63,0,1.26.04,1.88.12.43.06.85.14,1.27.26.47.13.91.36,1.29.67.4.36.65.85.71,1.38.05.58-.06,1.16-.33,1.67l-.04.06-.09.21c-.76,1.12-1.78,2.05-2.97,2.7l-.07.04.02.07,1.03,3.06.3.85c.02.1.05.21.1.3h0Zm-1.82,1.31c-.05.02,1.84,5.54,4.23,12.33l4.42,12.26c.05-.02-1.84-5.53-4.23-12.33l-4.42-12.26h0Zm-74.43,7.31c0,.05,6.23.1,13.92.1l13.93-.1c0-.05-6.23-.1-13.93-.1l-13.92.1Z" style="fill:#263238;"/><path d="m110.72,67.92v3.46l-1.01,1.06v-3.46l1.01-1.06Z" style="fill:#e0e0e0;"/><path d="m49.18,81.85c.05,0-.3-2.31-.8-5.12l-1-5.09c-.05.01.3,2.31.8,5.12l1,5.09h0Zm-.9-.51c.05,0-.3-2.19-.8-4.86l-1-4.83c-.05.01.3,2.19.8,4.86l1,4.83Z" style="fill:#263238;"/><path d="m86.74,115.87l-.27.05.08-.16.18.12Z" style="fill:#ffbe9d;"/><path d="m87,98.82l7.55,1.35-7.98,15.59-5.06-3.15s5.5-13.79,5.5-13.79Z" style="fill:#ffbe9d;"/><path d="m87.93,113.89l-.16.38s5.44,5.42,5,6.7l-12.99-5.59,2.03-4.24c.77.87,1.71,1.57,2.76,2.04,1.06.47,2.2.71,3.36.71Z" style="fill:#455a64;"/><path d="m82.52,113.08c-.14-.02-.28.02-.4.1-.12.08-.2.21-.23.35-.02.14.01.28.09.4s.2.2.34.22c.15.02.3-.02.42-.11.12-.09.21-.22.24-.37,0-.15-.05-.3-.14-.41-.1-.11-.24-.18-.39-.19" style="fill:#fff;"/><path d="m79.77,115.38l.49-1.02,12.28,5.73s.47.5.23.88l-12.99-5.59Zm8.04-1.05c-.03.07-.36-.04-.77.03s-.68.27-.73.22.2-.39.69-.46.85.16.81.21Zm1.12,1.15c0,.07-.33.06-.66.24s-.52.43-.58.4.05-.41.47-.62.81-.08.77-.02h0Zm.08,1.97c-.07,0-.02-.39.3-.65s.67-.29.67-.22-.26.17-.51.4-.39.49-.45.47Zm2.15-49.81s10.18,12.72,11.11,16.51c.62,2.54-.45,4.95-1.35,6.3-1.46,2.17-8.23,13.99-8.23,13.99l-6.36-2.7,4.83-12.51v-2.21l-13.84-18.32,12.49-3.08,1.35,2.02h0Z" style="fill:#263238;"/><path d="m82.37,108.54l2.85,9.81,1.18.18-2.55-10.5-1.47.5h0Z" style="fill:#263238;"/><path d="m87.31,121.15l-6.09-2.52.71-1.72,6.09,2.52-.71,1.72Zm-7.51-35.07c-.05,0,1.33,5.1,3.08,11.36l3.29,11.31c.05-.01-1.33-5.1-3.08-11.36l-3.29-11.31Zm-22.14,14.88c0-1-.3-1.99-.85-2.82-.56-.84-1.35-1.49-2.27-1.87s-1.95-.49-2.93-.29c-.98.2-1.89.68-2.6,1.39-.71.71-1.19,1.62-1.39,2.6-.2.99-.1,2.01.29,2.94.38.93,1.03,1.72,1.87,2.28,2.01,1.35,4.69,1.08,6.4-.63.95-.95,1.48-2.24,1.48-3.59h0Z" style="fill:#263238;"/><path d="m102.23,78.69s.04,0,.12-.03c.12-.04.23-.1.33-.17.19-.13.35-.31.47-.5.12-.2.2-.42.22-.65.02-.14.08-.22.21-.19.16.07.33.1.5.08.19-.05.36-.15.5-.29s.23-.32.27-.51c.06-.38.16-.76.28-1.12.03-.08.08-.14.15-.18.07-.04.15-.06.23-.04.17.03.39.18.67.1.52-.19.61-.75.64-1.13.01-.19.05-.38.11-.56.06-.16.18-.29.34-.36.06-.04.14-.05.21-.04s.14.04.2.09c.05.07.11.14.18.21.04.03.09.06.15.07s.11.01.16,0c.09-.02.17-.07.24-.14.07-.06.12-.14.15-.23.06-.14.1-.29.13-.44.11-.44.14-.9.09-1.36,0-.17-.04-.33-.1-.49l.02.49c.01.44-.04.89-.15,1.32-.08.25-.15.62-.42.68-.14.03-.2-.07-.33-.24-.08-.08-.18-.13-.29-.15-.11-.02-.22,0-.32.05-.2.09-.36.25-.44.46-.07.2-.12.4-.13.61-.01.2-.05.39-.12.57-.03.09-.08.17-.15.23-.07.07-.15.12-.23.15-.17.06-.34-.05-.57-.11-.06-.02-.13-.02-.2-.01s-.13.03-.19.07c-.1.07-.18.16-.23.27-.13.38-.22.76-.28,1.16-.07.32-.3.59-.61.69-.15.01-.3-.01-.44-.07-.05-.01-.1-.01-.15,0-.05.01-.09.04-.13.08-.06.07-.09.15-.1.24-.02.22-.08.43-.19.62-.1.19-.24.36-.41.5-.12.1-.25.19-.39.27h0Z" style="fill:#fff;"/><path d="m64.66,21.98c1.23-.05,4.03.8,4.23-.42l6.73-1.11c.2.1,4-.17,4-.17h1.78l-.83,3.59c-1.2.17-2.28.82-3.26,1.54s-1.92,1.52-3,2.06-2.39.77-3.51.33c-.77-.3-1.37-.9-2.07-1.32-1.02-.62-2.22-.87-3.4-.73-.56.12-1.14.19-1.71.2l-1.68-2.72c1.12-.67,1.49-1.19,2.72-1.25Z" style="fill:#263238;"/><path d="m93.02,8.19c.69.77,1.22,1.67,1.55,2.65.33.98.44,2.02.35,3.05-.13,1.35-.63,2.62-.88,3.95-.32,1.76-.2,3.65-1.08,5.2-.61,1.01-1.53,1.79-2.62,2.22-1.09.43-2.24.65-3.41.65-1.22.03-2.52-.12-3.52-.83-1.26-.9-1.8-2.49-2.23-3.98s-.85-3.08-2-4.13" style="fill:#263238;"/><path d="m58.96,16.94c-2.13-.6-2.42-1.6-2.42-1.6l.81-3.22.77-3.08c.46,1.11,2.44,1.95,3.57,1.54s2.43-1.75,4.54-2.1c2.03-.33,4.09,1.37,5.38,1.69,3.05.74,2.43-1.51,5.57-1.69,1.08-.06,1.98.7,3.05.56,1.68-.22,4.62-4.33,6.3-4.64,1.31-.25,4.04.25,4.96,1.22s1.37,1.38,1.69,2.7l-9.57,10.54c-.81.9-1.8,1.63-2.91,2.13-1.11.5-2.31.76-3.52.77-1.2,0-2.39.2-3.13.62-1.5.86-3.24,1.78-4.88,1.21-1.24-.44-2.06-1.64-3.23-2.24-1.46-.75-3.2-.47-4.83-.27s-3.53.25-4.77-.9l1.17-2.44c1.51.26,3.07-.01,4.41-.77-.82,0-2.19.2-2.96-.03h0Z" style="fill:#263238;"/><path d="m93.84,13.88c.3-2.28-.65-5.35-2.94-5.55l-7.35.39c-.34-.03-.67.07-.94.27-.27.21-.45.5-.5.84l-2.03,16.48c.28.42,7.08,6.23,7.08,6.23l.1-1.76.77-5.9s2.97.09,4.3-3.56c.67-1.79,1.17-4.88,1.5-7.43Z" style="fill:#ffbe9d;"/><path d="m92.11,17.11c-.05.26-.3.43-.56.39-.06,0-.12-.03-.18-.06-.05-.03-.1-.07-.14-.12-.04-.05-.07-.11-.08-.17-.02-.06-.02-.12-.01-.19.03-.12.1-.23.2-.31.1-.07.23-.1.36-.08.06,0,.12.03.18.06.05.03.1.07.14.12.04.05.07.11.08.17s.02.12.01.19h0Zm.64-1.46c-.07.05-.39-.29-.9-.38s-.95.08-.99,0,.06-.13.25-.22c.26-.11.54-.14.81-.08.27.05.52.19.7.39.14.16.18.28.13.31h0Zm-4.99.7c-.05.26-.3.43-.56.39-.06,0-.12-.03-.18-.06-.05-.03-.1-.07-.14-.12-.04-.05-.07-.11-.08-.17-.02-.06-.02-.12-.01-.19.06-.26.3-.42.56-.39.13.01.24.08.32.18.04.05.07.11.08.17.02.06.02.12.01.19h0Zm.05-1.69c-.07.05-.39-.29-.9-.38s-.95.08-1,0,.06-.13.25-.22c.25-.11.54-.14.81-.09.27.05.52.19.7.39.13.17.16.31.13.31h0Zm1.08,4.02c.29-.04.58-.04.87,0,.14,0,.27,0,.31-.07.04-.13.04-.28,0-.41l-.19-1.09-.36-2.81c.27.91.46,1.84.58,2.78l.18,1.09c.05.18.04.36-.03.53-.03.04-.07.08-.11.1s-.09.04-.14.04c-.08,0-.15,0-.23,0-.29-.02-.58-.08-.86-.17h0Z" style="fill:#263238;"/><path d="m88.04,24.89c-1.77-.32-3.42-1.13-4.77-2.33,0,0,.77,2.84,4.59,3.22l.18-.89Z" style="fill:#eb996e;"/><path d="m88.54,12.73c-.08.13-.58-.04-1.2-.08s-1.15.02-1.2-.12c-.02-.07.09-.18.31-.28.3-.12.62-.16.93-.13.32.03.63.13.9.29.21.12.29.25.26.33h0Zm4.57,1.16c-.11.1-.45-.09-.87-.18s-.81-.08-.87-.22c-.02-.07.05-.18.23-.25.49-.19,1.05-.06,1.41.32.13.15.17.28.1.33h0Z" style="fill:#263238;"/><path d="m88.81,20.34c-.12.21-.27.4-.45.57-.09.08-.19.15-.31.19-.11.04-.24.06-.36.04-.13-.03-.25-.08-.35-.17-.1-.08-.18-.19-.22-.31-.09-.25-.11-.52-.04-.77.06-.23.21-.48.45-.46.1.02.18.06.26.12l1.1.72" style="fill:#eb996e;"/><path d="m88.14,21.21c-.22-.03-.43-.1-.62-.2-.19-.12-.32-.31-.38-.53-.03-.13-.04-.27-.01-.4.02-.13.08-.26.15-.37.04-.06.09-.11.14-.16.05-.05.05-.04.1-.02s.11.08.18.11l.18.12.63.4c.18.14.39.25.61.32-.15-.18-.33-.33-.52-.45l-.6-.44-.18-.12c-.07-.04-.11-.08-.2-.13-.05-.03-.12-.05-.18-.05-.06.01-.11.04-.15.08-.07.06-.13.13-.18.2-.1.14-.16.3-.19.46-.03.17-.02.34.03.5.08.26.26.48.51.61.16.09.33.13.51.12.12,0,.18-.02.18-.05h0Zm-2.06-10.74c-1.14,1.12-1.88,2.6-2.1,4.19-.2,2.04-.77,2.04-1.41,1.25-1.64-1.99-2.15,1.8-2.92,2.7-.84.98-2.31,1.16-3.57.96s-2.51-.67-3.79-.71c-1.07-.03-2.12.23-3.18.31s-2.21-.05-3.01-.77c1.6.33,3.23-.24,4.72-.89s3-1.4,4.61-1.48c.82-.04,1.67.09,2.42-.24,1.24-.55,1.64-2.08,2.03-3.39.27-1.04.73-2.03,1.36-2.9.64-.88,1.6-1.47,2.67-1.64.53-.07,1.08.01,1.56.25.49.23.89.61,1.17,1.07" style="fill:#263238;"/><path d="m82.03,15.45c-.05-.03-2.26-.91-2.41,1.41s2.21,1.99,2.22,1.93.19-3.34.19-3.34h0Z" style="fill:#ffbe9d;"/><path d="m81.4,17.88s-.04.03-.11.05c-.1.04-.21.04-.3,0-.14-.11-.25-.25-.32-.41s-.09-.34-.07-.52c0-.2.06-.39.15-.57.03-.07.07-.13.13-.19s.12-.09.2-.11c.05,0,.1,0,.14.02s.08.06.09.1c.03.07,0,.11.02.12s.05-.03.04-.13c-.01-.06-.04-.11-.08-.15-.03-.03-.06-.05-.1-.06s-.08-.02-.12-.01c-.1.01-.19.05-.27.11s-.14.13-.18.22c-.11.2-.17.42-.18.64-.05.42.16.83.53,1.04.06.02.13.03.2.03.07,0,.13-.03.19-.06.04-.07.06-.12.05-.12h0Z" style="fill:#eb996e;"/><path d="m65.73,6.46c.06.09.12.18.18.27.19.25.39.49.62.7.36.34.77.62,1.22.84.59.3,1.23.48,1.89.52.8.05,1.6-.08,2.34-.39.41-.17.8-.39,1.15-.66.36-.28.7-.61,1.05-.93.34-.34.73-.64,1.15-.88.45-.23.97-.31,1.47-.24.52.08,1.03.24,1.52.45.5.22,1.01.42,1.54.58.27.08.54.12.82.14.07,0,.14,0,.21,0,.07,0,.14,0,.2,0l.2-.04c.07-.01.14-.03.2-.05.26-.09.5-.22.71-.39.21-.16.42-.33.6-.52l1.06-1.12c.18-.17.37-.32.58-.46.2-.13.42-.23.65-.3s.45-.12.69-.13c.23-.01.46,0,.68.02.44.06.86.16,1.28.31l1.15.47,1.03.49c.59.29,1.15.63,1.67,1.02.39.3.74.65,1.03,1.05l.15.24.12.22.16.36.07.23s.03.08.03.08c0,0,0-.03-.02-.08l-.07-.24c-.04-.12-.09-.25-.15-.37l-.12-.22c-.04-.08-.1-.16-.15-.24-.29-.41-.63-.77-1.03-1.07-.52-.4-1.08-.74-1.67-1.03l-1.03-.5-1.15-.47c-.42-.15-.85-.26-1.29-.32-.23-.03-.46-.04-.7-.03-.24.02-.48.06-.71.13-.23.07-.46.18-.67.31-.21.14-.41.3-.59.47-.38.35-.7.74-1.07,1.11-.18.19-.38.36-.59.52-.21.17-.45.3-.7.39-.06.02-.13.04-.19.05l-.2.04h-.2c-.07,0-.14,0-.2,0-.27,0-.54-.05-.8-.13-1.06-.29-2-.9-3.08-1.03-.52-.07-1.05.02-1.52.25-.43.24-.83.54-1.18.89l-1.05.93c-.35.27-.74.48-1.15.65-.73.3-1.52.43-2.31.39-.65-.04-1.29-.22-1.87-.51-.44-.22-.85-.5-1.22-.83-.23-.21-.44-.44-.63-.69l-.14-.2s0-.05-.01-.08h0Zm26.76,2.21c-.15.33-.37.64-.64.88s-.59.44-.94.56c-.7.23-1.44.3-2.17.19-.59-.07-1.23-.21-1.76.07-.33.22-.61.49-.86.8-.52.52-1.19.88-1.92,1.02-.73.14-1.48.06-2.16-.24.46-.89,1.1-1.69,1.86-2.34,1.55-1.31,3.56-1.94,5.59-1.76,1,.09,1.97.38,2.86.85" style="fill:#263238;"/><path d="m57.18,12.82s.04.06.07.09c.07.08.14.15.21.22.29.28.6.53.95.74.54.34,1.14.57,1.77.68.39.07.8.08,1.19.03.44-.09.87-.26,1.24-.52.8-.61,1.67-1.12,2.58-1.54.25-.1.52-.14.79-.13s.53.09.77.22c.51.29.98.65,1.4,1.07.44.46.93.87,1.45,1.23.31.14.65.21.99.21.34,0,.68-.09.98-.25.62-.29,1.2-.68,1.69-1.16.25-.24.49-.5.71-.77.21-.27.44-.54.68-.79.42-.45.92-.83,1.47-1.11.61-.13,1.26-.07,1.83.19.57.24,1.12.52,1.66.82.53.3,1.11.5,1.72.59.59.06,1.18-.03,1.72-.28.97-.47,1.78-1.21,2.35-2.12.28-.39.59-.77,1.02-.85.43,0,.86.07,1.26.21.2.05.41.06.61.02s.4-.12.57-.24c.28-.22.54-.46.77-.73.2-.23.44-.42.7-.56.22-.12.48-.15.72-.1.34.09.65.26.92.5l.28.24s0-.03-.06-.07-.11-.11-.2-.2c-.26-.25-.58-.44-.92-.54-.26-.06-.53-.03-.77.09-.28.15-.53.34-.74.57-.24.26-.49.5-.77.71-.15.11-.33.19-.52.22s-.38.02-.56-.03c-.42-.15-.87-.22-1.31-.22-.25.04-.47.16-.65.33-.18.17-.34.36-.47.57-.56.88-1.36,1.59-2.31,2.05-.51.23-1.07.32-1.63.25-.58-.09-1.14-.29-1.65-.58-.54-.31-1.1-.59-1.68-.83-.61-.27-1.3-.34-1.95-.2-.58.29-1.1.68-1.54,1.16-.25.26-.48.53-.7.81-.21.27-.44.53-.69.77-.47.48-1.02.87-1.63,1.16-.28.15-.58.23-.9.24s-.62-.05-.91-.18c-.51-.35-.99-.75-1.42-1.19-.43-.43-.91-.8-1.45-1.09-.53-.27-1.15-.3-1.7-.08-1.04.38-1.84,1.08-2.6,1.58-.35.25-.76.43-1.18.51-.38.06-.77.06-1.15,0-.62-.09-1.21-.31-1.75-.63-.34-.2-.66-.44-.96-.7l-.22-.21c-.03-.05-.06-.1-.1-.14h0Z" style="fill:#455a64;"/><path d="m77.32,9.01c.22-.03.45-.03.67,0,.27.05.52.13.77.24l.96.46c.88.37,1.88.39,2.77.04,1.02-.39,1.83-1.27,2.69-2.1.41-.41.86-.78,1.35-1.08.46-.28.97-.44,1.51-.47.92,0,1.81.28,2.58.77.54.32,1.03.71,1.46,1.16l.47.5c-.02-.06-.05-.11-.09-.15-.1-.13-.21-.26-.32-.39-.42-.47-.9-.88-1.44-1.21-.79-.52-1.71-.81-2.66-.82-.57.03-1.11.19-1.6.48-.51.31-.98.68-1.4,1.1-.86.84-1.66,1.69-2.62,2.07-.85.34-1.8.34-2.65,0l-.97-.43c-.25-.11-.52-.18-.79-.22-.17-.02-.34-.02-.52,0-.06,0-.12.02-.17.05h0Zm-20.47,9.38c.06.06.13.12.2.16.21.15.42.27.65.38.84.43,1.75.67,2.69.71.65.03,1.3-.05,1.92-.21l2.05-.77c.73-.33,1.55-.38,2.31-.15.77.3,1.28,1.04,1.9,1.68.31.33.68.59,1.1.77.42.16.88.2,1.32.1.42-.09.82-.3,1.13-.6.26-.3.5-.62.72-.96.1-.15.23-.27.38-.37.15-.1.32-.16.49-.19.34-.03.69.01,1.01.13l.96.27c.3.07.62.1.93.08.94-.03,1.85-.4,2.55-1.03.26-.21.48-.47.64-.77-.21.26-.44.51-.69.73-.71.59-1.59.92-2.51.94-.3,0-.6-.02-.89-.09-.3-.07-.62-.19-.95-.28-.35-.12-.72-.17-1.08-.14-.2.03-.39.1-.56.21s-.32.24-.43.41c-.22.33-.45.64-.71.93-.29.28-.65.46-1.03.54-.4.09-.82.06-1.2-.09-.39-.17-.74-.43-1.03-.74-.61-.62-1.13-1.39-1.97-1.73-.8-.24-1.67-.19-2.43.16-.66.3-1.34.57-2.03.8-.61.17-1.24.25-1.87.23-.92-.02-1.82-.24-2.65-.64-.62-.3-.91-.52-.92-.5h0Z" style="fill:#455a64;"/><path d="m86.52,109.87l.73-9.12-1.17-.27-1.07,9.78,1.5-.4h0Z" style="fill:#263238;"/><path d="m84.21,97.77l5.92,2.96-.83,1.67-5.92-2.96.83-1.67Z" style="fill:#263238;"/><path d="m89.99,98.41l-.27.04.09-.15s.18.12.18.12Z" style="fill:#ffbe9d;"/><path d="m90.8,81.37l8.36,2.06-9.36,14.85-4.95-3.31,5.95-13.6Z" style="fill:#ffbe9d;"/><path d="m67.93,50.18l15.67,3.57-.42,2.05,20.57,4.81c.91.21,1.75.68,2.4,1.35s1.09,1.53,1.27,2.45c.44,1.89.27,4.77-.77,6.41l-8.36,15.53-8.31-4.24s5.63-11.72,5.26-11.72-23.28-1.54-25.77-3.4-3.75-4.02-3.88-8.12c-.08-2.75,1.97-7.2,1.97-7.2l.36-1.48h0Z" style="fill:#263238;"/><path d="m104.42,75s-.05.07-.12.2l-.33.59-1.25,2.28-4.48,8.23.11-.04-8.31-4.24.05.13,3.15-7.03,2.1-4.69.06-.13h-.14l-17.58-1.54-5.15-.73c-.46-.08-.91-.2-1.36-.33-.15-.05-.26-.1-.34-.13l-.12-.04c.14.08.29.14.44.2.44.16.89.29,1.35.39,1.2.27,2.95.53,5.15.79,4.4.54,10.57,1,17.58,1.61l-.08-.14-2.1,4.69-3.15,7.04-.04.08.08.04,8.32,4.24.07.04.04-.07,4.43-8.32,1.21-2.31.31-.61c.08-.15.08-.2.08-.2h0Z" style="fill:#455a64;"/><path d="m97.84,67.95c-.62.16-1.18.46-1.65.89-.47.43-.83.96-1.04,1.56.35-.5.75-.98,1.18-1.42.47-.39.98-.74,1.51-1.04Zm-25.56-.07c.04-.07.07-.14.1-.22l.23-.65.77-2.34v-.07l-1.95-3.47-1.6-2.8-.04-.07-.07.03-2.81,1.07-.79.32c-.1.03-.19.07-.27.13.1-.01.2-.04.29-.08l.81-.27,2.83-1-.11-.04,1.58,2.81,1.98,3.47v-.07l-.7,2.36-.18.66c-.03.07-.05.14-.05.22h0Zm5.72-11.18c.82-.35,1.67-.6,2.54-.77.88-.09,1.77-.09,2.65,0-.24-.11-.5-.17-.77-.2-1.27-.18-2.57,0-3.74.55-.25.1-.48.24-.68.42h0Zm13.24,39.76l-.18.39s5.27,5.6,4.77,6.85l-12.8-6.02,2.17-4.19c.73.9,1.65,1.63,2.7,2.15,1.04.51,2.18.79,3.34.82Z" style="fill:#455a64;"/><path d="m85.86,95.48c-.14-.02-.29.01-.4.09-.12.08-.2.2-.24.34-.03.14,0,.28.08.4.08.12.2.2.34.24.15.02.3-.01.42-.1.12-.08.21-.21.25-.36.03-.29-.23-.64-.51-.62" style="fill:#fff;"/><path d="m83.03,97.69l.52-1.01,12.08,6.14s.45.52.2.89l-12.8-6.02h0Zm8.07-.79c-.03.06-.36-.05-.77,0s-.69.25-.73.19.22-.39.7-.43.84.19.8.24Zm1.08,1.19c0,.07-.33.05-.67.21s-.53.42-.59.39.07-.4.49-.6.8-.06.77,0Zm0,1.96c-.06,0,0-.37.32-.63s.68-.27.68-.2-.27.17-.53.39-.41.47-.47.45Z" style="fill:#263238;"/><path d="m65.73,61.52c1.63-.36,3.19-1.03,4.57-1.97-.03-.05-1.01.48-2.26,1.03l-2.3.95h0Z" style="fill:#455a64;"/><path d="m118.1,9.03l-1.04.2c-.53.1-.35.33-.66.66-.3.3-.46.72-.43,1.15l.39,4.98,3.5,2.32,1.2-2.39c.23-.38.37-.8.4-1.24l.23-2.86s-3.16,1.38-3.58.34c-.25-.64-.25-2.56-.02-3.16h0Z" style="fill:#ffbe9d;"/><path d="m97.39,32.73l-1.56-8.45-4.06.94-4.68,1.25.94,9.07,9.36-2.82h0Z" style="fill:#f99d25;"/><path d="m64.66,48.82c0-.56.5-.85.94-1.09,1.14-.63,2.18-1.43,3.1-2.36,1.83-5.25,5.33-13.68,6.25-15.7,1.31-2.88,5.02-5.62,5.38-5.71l7.39,4.44.17,2.13,2.08,2.62c.27.34.45.76.51,1.19s0,.88-.16,1.28l-4.79,12.23c-.06.51-.35,1.49-.54,2.54.15.94.51,1.87.31,2.82-.06.28-.18.54-.36.77-.62.77-1.37.57-2.26.22l-1.36-.39c-.97-.63-2.03-1.08-3.16-1.33-.77-.17-1.58-.09-2.31.23-.1.04-.19.08-.29.12-.5.18-1.03.25-1.56.21-.53-.04-1.05-.18-1.52-.42-1.1-.57-1.89-1.66-3.04-2.12l-1.09-.25c-1.09-.11-2.23.02-3.17-.58-.15-.09-.28-.21-.37-.36-.09-.15-.15-.32-.16-.5h0Z" style="fill:#f99d25;"/><path d="m80.75,53.83c.46-.07.89-.27,1.23-.59s.58-.73.69-1.18c-.25.37-.53.71-.83,1.03-.34.27-.71.52-1.1.74h0Zm.31-1.86c-.06,0-.11.33-.22.72s-.22.71-.17.74.25-.26.37-.68.07-.78.02-.78Zm-10.11-4.07c.4.16.79.35,1.15.58.33.21.7.51,1.12.83.45.37.95.68,1.48.91.5.18,1.03.26,1.56.23.53-.03,1.05-.17,1.52-.41.28-.15.54-.33.77-.56.09-.08.17-.17.22-.27-.33.27-.69.5-1.07.7-.46.21-.96.34-1.47.36-.51.02-1.01-.06-1.49-.24-.52-.22-1-.52-1.45-.87l-1.15-.81c-.27-.16-.57-.29-.87-.39-.1-.04-.21-.07-.33-.07h0Zm.91-1.38c1.13.14,2.28-.04,3.31-.53-.02-.05-.74.16-1.65.3l-1.66.23h0Zm17.22-11.92c.03-.31.01-.63-.05-.93-.06-.57-.19-1.36-.36-2.23l-.55-2.19c-.06-.22-.15-.44-.25-.64-.06-.15-.17-.22-.17-.19.07-.04.42,1.35.77,3.06l.42,2.2c.04.31.1.62.18.91h0Z" style="fill:#263238;"/><path d="m109.26,54.74l.46-.89c.2-.37.3-.8.28-1.22-.02-.43-.16-.84-.4-1.19-.6-.89-1.39-1.93-1.75-1.93-.61,0-3.39.96-3.39.96l-2.91.49-1.01,2.92c2.86,1.65,1.8-1.16,2.8-1.46l1.87.5.24,2.31,3.8-.49h0Z" style="fill:#ffbe9d;"/><g style="opacity:.3;"><path d="m83.99,42.27l-4.69,1.09s-1.98-8.43-1.09-10.12l2.49,8.21,2.69-.39.6,1.21h0Z"/></g><path d="m89.88,39.16l2.62,6.24,9.96,5.56-1.04,3.17s-12.47-3.77-13.63-5.08-4.8-8.84-4.8-8.84l6.89-1.05h0Z" style="fill:#ffbe9d;"/><path d="m77.04,30.79c.94-3.69,5.45-5.07,8.4-2.7.53.41.98.92,1.31,1.51,1.43,2.72,4.23,9.25,4.23,9.25l-10.22,3.24-3.14-8.54c-.13-.32-.71-2.24-.58-2.76h0Z" style="fill:#f99d25;"/><path d="m77.03,30.79c-.02.07-.03.15-.03.22,0,.22.02.43.06.64.14.8.36,1.59.65,2.35l2.95,8.13.03.08.08-.03,10.21-3.22.11-.03-.05-.1-3.63-8.05-.45-.9c-.14-.3-.31-.58-.51-.85-.39-.5-.86-.93-1.39-1.28-.12-.09-.25-.17-.39-.24l-.39-.21-.41-.15c-.13-.06-.27-.1-.41-.13l-.41-.1c-.14-.03-.27-.03-.41-.05-.26-.03-.53-.04-.79-.02-.94.04-1.85.32-2.64.83-.6.38-1.1.88-1.49,1.47l-.22.34-.15.32-.13.28-.08.24-.1.33s-.03.08-.03.12c.02-.03.03-.07.05-.11l.11-.32.08-.24.13-.27.16-.32.23-.33c.39-.57.9-1.06,1.49-1.42.78-.48,1.67-.74,2.58-.77.26-.01.51,0,.77.03.13,0,.26.02.38.05l.39.1c.13.03.26.07.39.13l.38.15.39.2c.14.06.26.14.38.23.51.34.97.76,1.34,1.24.19.26.35.54.49.83l.45.89,3.61,8.05.06-.13-10.18,3.23.11.05-3.02-8.09c-.29-.75-.52-1.52-.69-2.31-.04-.21-.07-.42-.09-.63v-.25h0Z" style="fill:#f99d25;"/><path d="m105.49,55.22s.23.1.6.06h.29c.13,0,.27-.03.38-.1.06-.04.11-.1.15-.17s.05-.14.06-.22c0-.14,0-.28-.02-.42l-.23-1.41c-.02-.2-.07-.39-.14-.57-.07,0,.02.91.17,2,.03.27.07.55-.09.65s-.38.08-.58.12l-.59.06h0Z" style="fill:#eb996e;"/><path d="m103.96,55.24c-.83,0-1.51-.68-1.51-1.51s.68-1.51,1.51-1.51,1.51.68,1.51,1.51-.68,1.51-1.51,1.51Z" style="fill:#263238;"/><path d="m106.91,54.81v.1h.03c.12-.02.24-.02.36,0,.21.05.42.07.64.07.14-.01.28-.08.39-.18.1-.13.16-.29.17-.45l.07-.95c.05-.39.03-.78-.05-1.16-.1-.3-.28-.57-.52-.79-.19-.21-.43-.38-.68-.5.18.21.38.41.58.6.2.21.35.47.44.74.07.36.08.72.03,1.08-.09.63.1,1.42-.45,1.44-.2.01-.4,0-.6-.02-.13-.01-.26,0-.39.05h.03s-.02-.03-.04-.03h0Zm-4.67-3.82s-.05-.04-.15-.11l-.45-.27-1.68-.97-5.56-3.13-1.76-.98.04.05-1.97-4.63-.6-1.34c-.07-.16-.14-.32-.23-.47.04.17.1.34.17.5l.54,1.37,1.92,4.62v.03h.03l1.76.98,5.59,3.08,1.7.91.47.24s.11.08.17.11h0Z" style="fill:#eb996e;"/><path d="m73.96,3.51l-.1-.76c-.01-.1,0-.2.02-.29.03-.1.07-.18.14-.26.06-.08.14-.14.23-.19.09-.05.18-.08.28-.09l21.52-1.91c.5.16.49,1,.49,1-.07.29-.19.58-.35.83l-22.23,1.67h0Z" style="fill:#8591a0;"/><path d="m95.41.71l-21.05,2.06c-.14.01-.26.07-.37.15-.11.08-.19.2-.23.32-.05.13-.06.27-.03.4.03.13.09.26.19.35l3.36,3.47c.07.08.16.13.26.17.1.04.2.05.31.05l15.76-1.18c.13-.01.26-.06.36-.13.11-.08.19-.18.24-.3l1.91-4.32c.12-.23.11-.52-.04-.73-.07-.11-.17-.19-.29-.25s-.25-.08-.37-.07h0Z" style="fill:#54667a;"/><path d="m79.38,9.26c.02-.06-.1-.78-.21-1.66-.14-1.07.15-2.14.8-2.99s1.64-1.42,2.75-1.61c1.9-.33,3.84-.43,5.78-.32,1.01.07,1.98.45,2.76,1.09s1.32,1.5,1.53,2.44l.49,2.12-13.91.92h0Z" style="fill:#8591a0;"/><path d="m72,7.34s.17.02.46.01c.41-.02.81-.16,1.16-.38.52-.33.94-.8,1.23-1.34.35-.68.66-1.39.92-2.1.27-.74.7-1.42,1.25-1.99.46-.47,1.09-.74,1.74-.75.45-.01.88.14,1.22.42.13.1.23.23.29.38,0,0-.11-.13-.35-.3-.34-.23-.75-.34-1.16-.32-.61.03-1.19.29-1.61.73-.52.56-.92,1.21-1.18,1.92-.27.73-.59,1.44-.95,2.12-.32.57-.78,1.05-1.34,1.38-.38.22-.81.34-1.25.33-.15,0-.3-.03-.44-.1h0Z" style="fill:#040e1a;"/><path d="m72.16,7.32c-.8-.67-1.95-.72-2.76-1.36.08.3.27.57.54.74-.07.02-.13.03-.2.03-.07,0-.14-.03-.2-.06-.13-.04-.29-.09-.39.01-.05.05-.08.11-.09.18-.08.35-.1.72-.05,1.08l1.96-.16c.4-.05,1.06.02,1.17-.41" style="fill:#040e1a;"/></svg>