<?xml version="1.0" encoding="UTF-8"?><svg id="a" xmlns="http://www.w3.org/2000/svg" width="108.3" height="121.22" viewBox="0 0 108.3 121.22"><path d="m99.28,82.98h4.49v35.87h-4.49v-35.87Z" style="fill:#455a64;"/><path d="m99.27,118.85v-2.79l.03-7.6.04-25.48-.1.1h4.52l-.1-.1.05,35.87.05-.04-3.33.02h-1.16,1.14l3.35.02h.04v-.05l.06-35.87-.1-.1h-4.59v.1l.04,25.55.03,7.58v2.57c.01.07.02.14.03.21h0Z" style="fill:#263238;"/><g style="opacity:.3;"><path d="m99.28,83.85h4.49v1.49h-4.49v-1.49Z"/></g><path d="m3.78,82.98h4.49v35.87H3.78v-35.87Z" style="fill:#455a64;"/><path d="m3.79,118.85v-2.79l.03-7.6.04-25.48-.1.1h4.52l-.1-.1.06,35.87.04-.04-3.33.02h-1.16,1.13l3.36.02h.05v-.05l.05-35.87-.1-.1H3.69v.1l.04,25.55.03,7.58v2.57c.01.07.02.14.03.21h0Z" style="fill:#263238;"/><path d="m10.82,51.56h4.49v29.9h-4.49v-29.9Z" style="fill:#455a64;"/><path d="m10.81,81.46c0-.05,0-.11,0-.16v-2.16l.03-6.33.04-21.25-.1.1h4.52l-.1-.09v17.62l.04,12.28.05-.05-3.32.03h-1.17,1.14l3.35.03h.06s.04-12.28.04-12.28v-17.61s.1.09-.1-.11h-4.57v.1l.04,21.32.03,6.31v2.13c0,.11.03.14.03.14h0Z" style="fill:#263238;"/><path d="m90.69,51.56h4.49v29.9h-4.49v-29.9Z" style="fill:#455a64;"/><path d="m90.68,81.46c0-.05,0-.11,0-.16v-2.16l.03-6.33.04-21.25-.1.1h4.52l-.1-.09v17.62l.04,12.28.05-.05-3.32.03h-1.17,1.14l3.35.03h.05s.04-12.28.04-12.28v-17.61s.1.09-.1-.11h-4.56v.1l.05,21.32.03,6.31v2.13c0,.11.03.14.03.14h0Z" style="fill:#263238;"/><path d="m2.15,48.15h101.88v4.79H2.15v-4.79Z" style="fill:#455a64;"/><path d="m2.15,52.93v-4.79l-.03.03,101.87.07-.1-.1v4.79l.1-.1-72.18.04-21.73.03H2.11h7.91l21.71.03,72.3.11h.1v-5h-.1l-101.87.07h-.03v4.53c0,.09,0,.19.03.28h0Z" style="fill:#263238;"/><path d="m1.89,55.33h101.88v4.79H1.89v-4.79Z" style="fill:#455a64;"/><path d="m1.89,60.11v-4.79l-.03.03,101.87.07-.1-.1v4.79l.1-.1-72.14.04-21.73.03H1.89h7.91l21.71.03,72.26.04h.1v-4.93h-.11l-101.87.07h-.03v4.53c0,.19.04.28.04.28h0Z" style="fill:#263238;"/><path d="m1.89,62.77h101.88v4.79H1.89v-4.79Z" style="fill:#455a64;"/><path d="m1.89,67.56v-4.79l-.03.03,101.87.07-.1-.1v4.79l.1-.1-72.18.04-21.73.03H1.85h7.91l21.71.03,72.26.04h.1v-4.94h-.11l-101.87.07h-.03v4.54c0,.2.08.28.08.28h0Z" style="fill:#263238;"/><path d="m1.89,70.22h101.88v4.79H1.89v-4.79Z" style="fill:#455a64;"/><path d="m1.89,75v-4.79l-.03.03,101.87.07-.1-.1v4.79l.1-.1-72.18.04-21.73.03H1.85h7.91l21.71.03,72.26.04h.1v-4.93h-.11l-101.87.07h-.03v4.53c0,.19.08.28.08.28h0Z" style="fill:#263238;"/><path d="m.03,79.07h108.16v4.79H.03v-4.79Z" style="fill:#455a64;"/><path d="m.04,83.85v-4.79l-.03.03,108.15.07-.1-.1v4.79l.1-.1-76.62.04-23.08.03H0h8.45l23.05.03,76.7.04h.1v-4.93h-.1L.04,79.04h-.03v4.53c0,.1,0,.19.02.28h0Z" style="fill:#263238;"/><g style="opacity:.3;"><path d="m3.79,83.85h4.49v1.49H3.79v-1.49Z"/></g><g style="opacity:.3;"><path d="m70.6,77.2c-.33-.1-.68-.12-1.01-.06-10.56,1.18-22.25,1.98-32.82,3.16v.11c6.78,1.96,13.84,2.79,20.88,2.43.66-.03,1.41-.04,1.86.45s.35,1.37.2,2.09l-4.45,19.51c-.23,1.02-.39,2.28.4,2.95,1.1.93,2.71-.17,3.64-1.28,6.29-7.51,9.14-17.25,11.83-26.69.28-.96.4-2.3-.53-2.68h0Z"/></g><path d="m84.07,74.03c-1.1-.95-2.53-1.42-3.98-1.32l-2.42,7.79c1.78.08,3.56,1.01,5.28.53.69-.21,1.3-.62,1.77-1.18.47-.56.76-1.23.86-1.95.07-.72-.02-1.44-.29-2.12s-.68-1.27-1.22-1.75h0Z" style="fill:#455a64;"/><path d="m80.14,72.53c0-.06.26-.11.74-.11.68.01,1.36.14,1.99.38.97.38,1.81,1.04,2.42,1.9.37.51.65,1.08.81,1.69.18.67.19,1.37.06,2.04-.13.69-.44,1.33-.88,1.86-.42.49-.96.87-1.57,1.1-.98.35-2.04.42-3.06.2-.65-.13-1.29-.33-1.91-.6-.43-.19-.66-.32-.64-.39s.28-.04.74.03l1.9.29c.9.11,1.8-.01,2.64-.35.46-.19.87-.5,1.19-.88.34-.42.57-.92.67-1.45.1-.52.09-1.06-.02-1.58s-.32-1.01-.62-1.45c-.5-.76-1.18-1.37-1.98-1.79-.57-.27-1.16-.48-1.78-.62-.45-.12-.71-.2-.7-.27h0Z" style="fill:#e0e0e0;"/><path d="m58.1,101.15l-4.9,13.83,17.07,6.23c.49-1.68-7.15-8.2-7.15-8.2l3.52-8.73-8.53-3.13h0Z" style="fill:#455a64;"/><g style="opacity:.6;"><path d="m58.1,110.35c-.18,0-.36.05-.5.16s-.24.28-.27.46c-.02.18.04.37.15.51s.28.24.46.27c.19,0,.38-.05.53-.18.15-.12.25-.3.28-.49,0-.37-.35-.79-.72-.73" style="fill:#fff;"/></g><path d="m53.19,114.98l.49-1.39,16.21,6.51s.64.61.36,1.12l-17.07-6.24h0Z" style="fill:#f5f5f5;"/><path d="m63.42,113.04c-.03.08-.46-.03-.97.09s-.85.39-.92.35.24-.5.85-.63,1.09.13,1.04.2h0Zm1.52,1.4c0,.09-.43.1-.83.35s-.63.6-.71.56.04-.53.55-.83,1.02-.16.99-.08h0Zm.24,2.52c-.08,0-.05-.47.35-.85s.84-.42.85-.35-.32.24-.62.56-.48.67-.57.64h0Zm-1.18-6c-.06.06-.4-.19-.88-.35s-.9-.12-.92-.21.44-.26,1.01-.08.86.59.8.64h0Zm.33-2.19c-.31-.03-.6-.14-.85-.32-.29-.17-.55-.37-.79-.6-.14-.14-.27-.29-.4-.44-.08-.09-.14-.19-.18-.3-.03-.08-.04-.17-.02-.25.02-.08.07-.16.14-.21.06-.04.14-.07.21-.08s.15,0,.23.02c.11.04.21.1.3.16.17.11.32.24.47.38.24.24.44.51.6.81.17.26.26.57.25.88-.05,0-.15-.32-.44-.77-.17-.26-.37-.49-.6-.7-.14-.13-.28-.24-.44-.35-.16-.11-.31-.17-.39-.1s-.04.04-.02.1c.04.08.08.15.14.22.11.15.22.29.35.43.22.23.46.43.71.62.26.15.51.32.75.5h0Z" style="fill:#263238;"/><path d="m64.17,108.85c-.07-.3-.05-.62.07-.91.1-.32.26-.63.46-.9.12-.16.26-.31.41-.44.09-.09.19-.17.32-.21.12-.04.25-.05.38-.03.07.03.14.08.19.15s.08.14.08.23c0,.12,0,.23-.02.35-.04.2-.11.4-.21.58-.16.31-.4.57-.69.76-.49.32-.88.3-.87.27.26-.13.51-.28.75-.45.24-.19.43-.42.56-.7.08-.16.14-.33.17-.5.04-.19.02-.37-.05-.37s-.15.01-.22.04c-.07.03-.13.07-.18.13-.14.12-.26.25-.38.39-.2.24-.35.51-.47.8-.19.48-.22.83-.26.82h0Zm-24.44-47c-2.79.07-5.44.46-7.37,2.5-2.55,2.71-5.71,6.56-5.87,9.24-.29,4,2.13,5.18,3.86,6.16.78.42,1.66.63,2.54.59l32.29-.25,1.02-5.51-20.89-5.18.87-7.91s-6.44.36-6.44.37Z" style="fill:#263238;"/><path d="m46.18,61.49l10.16-.47s17.54.97,21.29,4.45,3.27,7.38,2.03,11.13-12.24,27.87-12.24,27.87c0,0,.89,1.53.39,3.06-.2.67-.57,1.27-1.07,1.76-.5.48-1.12.82-1.79.99l-9.77-3.61s-1.33-.47-.39-1.74,1.56-1.49,1.56-1.49v-2.5s3.43-6.28,3.74-7.14,3.6-13.65,3.6-13.65l2.19-3.78s-5.29-2.5-9.87-4.31l-10.71-2.65.88-7.92h0Z" style="fill:#263238;"/><path d="m62.66,106.21s-.33-.22-.86-.56c-1.38-.9-2.93-1.49-4.56-1.74-.34-.03-.68-.08-1.02-.15.35-.04.69-.03,1.04.02.83.09,1.64.29,2.42.59.78.3,1.52.69,2.19,1.18.29.19.55.41.78.67Zm4.88-1.73c-.21-.18-.4-.38-.57-.6l-1.23-1.57-1.12-1.65c-.16-.22-.3-.47-.4-.72.19.2.36.42.51.65l1.16,1.61,1.18,1.6c.18.21.34.44.46.68Zm3.58-31.57s-.35.11-.92.3c-.74.25-1.44.58-2.1.99-.66.42-1.27.91-1.81,1.47l-.67.7c.15-.29.35-.56.57-.8.52-.6,1.13-1.11,1.81-1.54.67-.42,1.4-.74,2.16-.96.31-.1.64-.15.96-.16Zm-9.99,17.06c0-.07.02-.14.04-.21l.15-.6.58-2.19,2-7.22,1.14-3.97c.41-1.06,1.04-2.02,1.84-2.82.53-.54,1.11-1.03,1.74-1.45l.53-.32c.06-.04.13-.07.19-.1l-.69.48c-.61.44-1.17.94-1.69,1.48-.77.8-1.37,1.74-1.77,2.78l-1.13,3.96-2.04,7.23-.64,2.18-.18.59c-.02.07-.04.13-.08.19h0Zm-8.98-18.41c-.05,0-.27-1.91-.48-4.27l-.29-4.29c.05,0,.27,1.91.48,4.27,0,0,.29,4.29.29,4.29Zm-16.91,5.11s-.19-.3-.5-.75c-.42-.59-.91-1.11-1.47-1.56-.57-.44-1.19-.8-1.86-1.06l-.84-.31c.3.01.6.08.89.18,1.41.47,2.61,1.42,3.4,2.68.18.25.31.53.39.82Zm6.22-6.94s-.45-.25-1.19-.59c-1.95-.89-4.12-1.21-6.24-.9l-1.31.23c.11-.06.22-.1.35-.13.31-.1.63-.18.95-.23,2.15-.38,4.37-.06,6.32.92.29.14.58.31.85.49.1.06.19.13.28.22h0Z" style="fill:#455a64;"/><path d="m65.78,74.57c-.08,0-.17-.02-.25-.04l-.72-.16-2.63-.6-8.71-1.85-8.75-1.62-2.66-.46-.72-.13c-.08-.01-.17-.03-.25-.06.09,0,.17,0,.25.02l.73.09,2.67.4,8.77,1.57,8.7,1.91,2.62.65.71.19c.08.02.16.04.24.08Z" style="fill:#455a64;"/><path d="m45.31,70.33c-.13-.36-.28-.7-.45-1.04-.2-.35-.45-.68-.74-.96-.36-.35-.73-.68-1.13-.98-.73-.54-1.51-1.03-2.32-1.45-.34-.16-.67-.35-.99-.56.36.12.71.26,1.04.44.84.39,1.63.86,2.37,1.42.4.31.78.65,1.14,1.01.29.3.54.65.73,1.02.13.25.22.52.29.79.03.1.05.21.05.31h0Z" style="fill:#455a64;"/><path d="m81.28,75.25s-.5.59-.92,1.43-.56,1.59-.62,1.58c.03-.58.18-1.15.45-1.67.26-.52.63-.97,1.09-1.34Zm26.14-47.03s-.02.03-.03.05l-.09.14-.38.54-1.46,1.99-5.24,7.04-.04.06-.06-.04-4.57-3.25.12-.02-3.44,4.67-3.74,5.07-.04.07-.07-.04-5.62-3.31.1-.02-4.84,6.09-1.36,1.68-.36.44c-.04.05-.08.1-.13.15.03-.06.07-.11.11-.16l.35-.46,1.33-1.71,4.79-6.13.04-.05.05.04,5.62,3.29-.11.02,3.73-5.07,3.46-4.67.05-.07.07.05,4.56,3.27h-.11l5.29-7.01,1.5-1.96.4-.51.11-.13s.02-.02.02-.02h0Z" style="fill:#263238;"/><path d="m106.93,33.38c-.01-.13-.01-.27,0-.41l.08-1.1.32-3.63v-.02l.12.09-3.41,1.2-1.04.35c-.12.05-.25.08-.39.1.12-.07.24-.12.37-.17l1.02-.4,3.39-1.25.13-.05v.14h0s-.37,3.64-.37,3.64l-.13,1.1c0,.14-.04.28-.09.41h0Z" style="fill:#263238;"/><path d="m67.3,48.5c-.16-1.06-3.32-4.58-3.32-4.58l-3.22-8.65c-.36-1.19-.79-2.35-1.29-3.48-1.11-1.88-1.65-1.92-3.54-2.99l-3.67-1.63-.45-1.01c-.39-.87-1.05-1.57-1.89-2.01l-9.19-4.78-2.85,5.06-5.78,3.01c-1.12,1.44-.35,24.57-.35,24.57,0,0-.55,9.01-1.16,11.54s-.97,4.4-.97,4.4l2.73-3.16c1.6-2.02,5.12-2.95,7.64-2.92l21.57.09-1.31-6.48,17.9,3.81s3-5.89,3.24-6.01-14.09-4.79-14.09-4.79h0Z" style="fill:#c1d52f;"/><path d="m40.25,26.42c-.15-.15,1.73,4.35,2.94,9.25.77,3.05.93,8,.93,10.75l.46,7.7v6.74l10.34-.7-1.55-11.32-1.61-10.09c-.32-2.54-1.86-12.73-1.86-12.73,0,0-5.32,4.84-9.66.4h0Z" style="fill:#fff;"/><path d="m63.21,52.77c-.02-.09-.02-.18,0-.26.02-.24.07-.47.13-.7.22-.76.63-1.46,1.18-2.02s1.25-.97,2-1.19c.23-.07.46-.11.69-.14h.26s-.36.07-.91.26c-.72.25-1.38.66-1.92,1.2-.54.54-.95,1.2-1.19,1.93l-.25.92h0Zm.53-4.12c.48-.29,1.02-.44,1.58-.46.55-.08,1.11,0,1.63.19,0,.06-.73-.08-1.62,0s-1.58.32-1.59.26h0Z" style="fill:#263238;"/><path d="m32.35,27.24c-1.45.64-2.74,1.61-3.75,2.83s-1.72,2.68-2.07,4.23c-.97,3.97-5.12,20.21-4.26,22.64s17.44,4.81,17.44,4.81l1.97-8.35-8.42-2.32.21-10.93c.11-3.2-1.11-12.92-1.11-12.92h0Z" style="fill:#c1d52f;"/><path d="m41.45,54.58l2.95.78-1.75,6.43-2.9-.13,1.7-7.08h0Z" style="fill:#fff;"/><path d="m61.76,60.16l-2.66-2.84-5.47-1.39-5.13,1.51c-.12,0-4.36-1.17-4.36-1.17l-1.48,5.47,7.64.53,8.73-.35s.45-.43.18-.72,1.46.49,1.67.5.6.17.87-.16c.18-.23.43-.95.02-1.38Z" style="fill:#c78976;"/><path d="m59.2,61.2c-.3-.06-.59-.14-.87-.26l-2.07-.61-2.12-.48c-.3-.04-.59-.11-.88-.21.3-.01.61.01.9.07.72.1,1.44.24,2.14.42.7.18,1.4.4,2.07.67.29.09.56.23.82.39h0Zm2.56-1.04c-.41-.11-.82-.24-1.21-.39l-2.94-.89c-1.16-.32-2.18-.7-2.96-.74-.42-.02-.84,0-1.26.05.11-.06.22-.1.35-.11.31-.07.62-.09.94-.08.81,0,1.87.35,3.01.7l2.94.95.86.35c.1.04.2.1.28.17h0Z" style="fill:#8b5d54;"/><path d="m22.2,56.07c0,.13.02.26.04.39.09.37.29.7.58.95.72.68,2.1,1.24,3.84,1.56.8.26,1.71.47,2.68.7l3.11.67,7.24,1.42-.11.07.58-2.43,1.34-5.53.07.11-7.48-2.15c-1.03-.44-2.15-.63-3.26-.57-.85.05-1.68.24-2.46.58-.5.22-.97.48-1.42.79l-.35.25-.12.08s.03-.04.11-.1.18-.16.35-.27c.44-.33.91-.61,1.41-.83.79-.36,1.63-.57,2.49-.63,1.14-.07,2.28.12,3.33.56l7.49,2.12.09.02-.02.09-1.34,5.53-.59,2.43-.02.09h-.09l-7.24-1.44-3.11-.7-2.69-.72c-1.76-.35-3.14-.93-3.87-1.64-.29-.26-.49-.61-.57-1-.03-.14-.03-.27-.01-.41h0Z" style="fill:#263238;"/><path d="m33.7,51.65s-.3-.24-.81-.58c-1.32-.89-2.89-1.35-4.49-1.32l-.99.05c.32-.12.65-.18.99-.19,1.63-.12,3.25.36,4.57,1.34.28.19.53.42.74.69Z" style="fill:#263238;"/><path d="m34.81,38.05c.02.17.02.34,0,.51,0,.33-.03.8-.08,1.39l-.57,4.52c-.24,1.51-.59,3-1.04,4.46l-.27.74-.24.55c-.07.15-.16.3-.26.44.05-.16.11-.32.19-.47l.21-.56.24-.75c.42-1.46.74-2.94.99-4.44l.62-4.52.14-1.39c0-.16.03-.32.07-.48h0Zm7.61-3.93s-.04-.1-.12-.27c-.13-.24-.31-.45-.54-.6-.17-.12-.36-.19-.57-.22-.2-.03-.41-.01-.61.05-.25.09-.47.24-.64.43-.17.2-.29.44-.35.69l-.05.26-.11-.24c-.42-.91-.79-1.85-1.1-2.8-.55-1.59-.82-3.26-.81-4.95,0-.32.04-.61.06-.87s.08-.47.11-.64c.04-.18.09-.36.16-.54-.13.68-.2,1.36-.21,2.05.03,1.66.32,3.3.86,4.87.31.95.67,1.87,1.08,2.78l-.16.02c.06-.29.2-.55.39-.77.19-.22.44-.38.72-.47.44-.13.91-.05,1.27.23.23.17.42.39.53.65.03.07.05.14.07.22.01.07.01.09,0,.09h0Zm8.95.82c-.03-.14-.06-.29-.08-.43-.08-.4-.1-.81-.07-1.22.07-.62.37-1.18.82-1.6.27-.24.62-.38.99-.38.2,0,.4.04.57.13.18.09.34.21.46.37l-.15.09-.32-.87-1.6-4.38-.47-1.33c-.06-.16-.11-.33-.15-.5.08.15.15.31.21.47l.52,1.31,1.65,4.37.32.87.21.56-.35-.47c-.11-.14-.25-.25-.4-.32-.16-.08-.33-.12-.5-.12-.33,0-.65.12-.9.33-.43.39-.71.92-.8,1.49-.04.4-.03.79.02,1.19.02.15.03.29.01.44h0Zm6.12.9s.82,5.07,1.73,11.34l1.54,11.36s-.82-5.07-1.73-11.34c0,0-1.54-11.36-1.54-11.36Z" style="fill:#263238;"/><g style="opacity:.3;"><path d="m38.43,31.49c.05,1.41.35,2.8.9,4.09.39-.49.83-1,1.42-1.15.74-.18,1.5.28,2.03.85-.09-.56-.32-1.1-.65-1.56-.16-.23-.38-.41-.63-.54-.25-.13-.52-.2-.8-.21-.28,0-.55.11-.77.28-.22.18-.37.43-.43.7l-1.04-2.44"/></g><path d="m34.78,33.69s-.03-.38-.13-.97c-.15-.77-.44-1.5-.88-2.16-.24-.36-.51-.69-.82-.98-.25-.24-.53-.46-.82-.65-.5-.32-.86-.44-.85-.48.09,0,.18.03.26.06.1.03.2.07.29.12.13.05.25.12.37.19.31.18.61.39.87.63.33.3.62.64.86,1.01.45.67.74,1.44.85,2.24.03.24.05.48.03.73-.01.17-.02.26-.03.26h0Z" style="fill:#263238;"/><g style="opacity:.3;"><path d="m57.79,38.1l2.31,16.4.11.26c.55-5.67-.29-11.38-2.43-16.66h0Z"/></g><path d="m70.61,47.51l-7.51,13.22-18.52.41-.04.84,17.93-.13.57-.02,18.94.04,3.83-6.64,4.89-7.05c.07-.11.12-.23.12-.36,0-.13-.02-.25-.08-.37-.12-.23-.36-.37-.62-.37l-18.91.07c-.12,0-.24.04-.35.1-.1.07-.19.16-.25.27h0Z" style="fill:#e0e0e0;"/><path d="m85.81,55.24s.97.9.82,1.66-.1,1.33-.82,1.39c0,.28-.08.55-.26.76-.18.21-.43.34-.71.37,0,0,.22,1.2-1.16,1.39,0,0-.42,1.28-1.29.97-.5-.17-.98-.4-1.43-.67l-.26-.47s-1.28-.48-.97-1.21c.19-.44.86-.56.86-.56-.08-.18-.11-.38-.09-.58.01-.2.07-.39.18-.56.31-.42,1.31-.07,1.31-.07-.02-.36.09-.71.31-.99.35-.41,1.94.7,1.94.7l.87-1.04.72-1.1Z" style="fill:#c78976;"/><path d="m83.66,60.82c-.56-.24-1.1-.54-1.6-.89-.54-.29-1.04-.64-1.5-1.04,1.1.53,2.14,1.18,3.11,1.94h-.01Zm1.17-1.4c-.52-.21-1.02-.47-1.48-.79-.49-.27-.96-.58-1.38-.95.52.21,1.02.47,1.48.79.5.26.96.58,1.38.95Zm-1.59-2.62c.03-.05.62.26,1.32.7.43.25.84.53,1.24.83-.03.06-.65-.22-1.34-.67-.43-.24-.84-.53-1.22-.86h0Z" style="fill:#8b5d54;"/><path d="m90.69,47.59s-.06,0-.09,0h-1.3l-3.76.03-12.41.03h-.9c-.13-.01-.27,0-.39.07-.12.06-.23.15-.3.26l-.84,1.53-1.6,2.9-2.71,4.91-1.84,3.3-.51.89-.13.23s-.03.05-.05.08c0-.03.02-.06.04-.09l.12-.24.48-.91,1.79-3.33,2.68-4.93,1.59-2.91.85-1.54c.09-.14.22-.25.37-.32.15-.07.31-.11.48-.09h.9l12.41.03,3.76.03h1.3l.09.07h0Z" style="fill:#263238;"/><path d="m77.37,54.25c-.09.13-.14.28-.14.43,0,.15.04.31.11.44s.19.24.33.31c.14.07.29.09.44.08.15-.02.3-.08.41-.18.12-.1.21-.23.25-.38.05-.15.05-.3.01-.45-.04-.15-.12-.28-.23-.39-.37-.29-.9-.23-1.19.14,0,0,0,0,0,0h0Z" style="fill:#fff;"/><path d="m50.09,25.33l-.1-3s3.96-.87,3.76-4.9c-.09-1.95-.62-5.94-1.13-9.54-.27-1.87-1.23-3.56-2.68-4.75-1.45-1.19-3.3-1.79-5.17-1.67l-.38.02c-4.15.5-6.04,4.33-5.42,8.48l.97,15.84c.08,1.33.67,2.57,1.65,3.46.97.89,2.26,1.37,3.58,1.34.67-.02,1.33-.17,1.93-.45.61-.28,1.16-.67,1.62-1.16.46-.49.82-1.07,1.05-1.7.24-.63.35-1.3.33-1.97Z" style="fill:#c78976;"/><path d="m49.99,22.34c-1.85.11-3.69-.31-5.3-1.22,0,0,1.35,2.85,5.32,2.24l-.02-1.02Z" style="fill:#8b5d54;"/><path d="m52.12,11.67c.01.15-.04.3-.13.41-.1.12-.23.19-.38.2-.07.01-.15,0-.22-.01-.07-.02-.14-.05-.2-.1-.06-.05-.11-.1-.14-.17-.04-.06-.06-.13-.07-.21,0-.15.05-.29.14-.4.1-.11.24-.18.38-.19s.28.02.4.11c.11.09.19.22.21.36h0Zm-.23-1.76c-.07.08-.52-.22-1.13-.18s-1.04.38-1.12.31.03-.17.22-.33c.52-.41,1.24-.45,1.8-.1.2.14.27.27.24.3h0Zm-5.75,2.01c.01.15-.04.3-.14.41-.1.11-.23.19-.38.2-.15.02-.29-.02-.41-.11-.06-.05-.11-.1-.14-.17-.04-.06-.06-.13-.07-.21-.01-.15.04-.3.13-.41.1-.12.23-.19.38-.2.22-.03.44.08.55.28.04.06.06.13.07.21h0Zm-.28-1.52c-.07.08-.52-.22-1.13-.18s-1.04.38-1.12.31.03-.17.22-.33c.25-.21.56-.33.89-.35.32-.02.64.06.9.23.2.15.28.28.24.31Zm2.51,4.45c.32-.12.65-.2.99-.24.16-.02.3-.07.32-.17,0-.16-.05-.33-.13-.46l-.53-1.18-1.24-3.08c.07-.03.73,1.3,1.48,2.97l.52,1.18c.11.19.15.4.12.62-.02.06-.05.11-.09.15-.04.04-.1.08-.15.1-.09.03-.17.05-.26.06-.33.06-.68.08-1.02.06h0Zm-1.78.53c.1,0,.14.66.74,1.1s1.31.32,1.32.42c0,.04-.15.14-.45.17-.39.03-.78-.08-1.1-.31-.31-.22-.51-.56-.58-.93-.05-.27.02-.45.07-.45h0Zm-.72-7.41c-.05.17-.67.13-1.38.26s-1.29.35-1.38.22c-.05-.07.04-.23.27-.41.3-.22.65-.37,1.02-.43.37-.07.74-.04,1.1.06.26.09.42.22.38.3h0Zm5.69.17c-.1.15-.53.03-1.04.05s-.94.15-1.04,0c-.05-.07,0-.22.19-.35.24-.18.53-.28.83-.28.3-.01.6.07.85.23.18.14.25.29.2.35Zm.57-2.06s-1.21-2.45-2.45-2.97c-1.5-.62-2.04,1.04-3.46.73s-2.85-.9-4.21.27c-1.49,1.28-.69,2.07-.69,3.86.05,7.27-1.14,9.39-1.73,6.01-.07-.37-1.11-.6-1.36-2.17-.32-2.03-.56-4.52-.19-6,.31-1.25.95-2.14,2.14-3.13,1.87-1.59,4.57-1.79,6.41-1.74,1.84.05,5.54,1.98,5.54,5.14h0Z" style="fill:#263238;"/><path d="m39.85,13.84c-.01-.15-.06-.29-.13-.42-.07-.13-.17-.24-.28-.34s-.25-.16-.39-.2c-.14-.04-.29-.05-.44-.03-.74.12-1.55.6-1.4,2.15.26,2.74,2.94,1.92,2.94,1.84s-.19-1.86-.3-3.01h0Z" style="fill:#c78976;"/><path d="m39.46,15.87s-.04.04-.12.08c-.11.06-.23.07-.35.04-.3-.08-.58-.52-.65-1.01-.03-.23,0-.47.07-.7.02-.09.06-.17.11-.24.06-.07.13-.13.21-.16.05-.02.11-.02.17,0s.1.06.13.1c.04.08.03.13.04.14s.06-.05.03-.16c-.03-.07-.07-.12-.12-.16-.08-.05-.18-.06-.27-.04-.11.03-.21.09-.29.18-.08.08-.14.19-.17.3-.09.25-.13.52-.09.78.07.55.4,1.04.8,1.12.15.03.31-.01.43-.12.07-.07.08-.14.07-.14h0Z" style="fill:#8b5d54;"/><path d="m39.58,8.5c.35.25.76.41,1.19.47.21.02.43-.04.61-.17s.3-.32.34-.53c.02-.19-.04-.41.08-.57s.42-.15.65-.14c.4,0,.79-.13,1.1-.38.32-.25.54-.6.62-.99.27.27.7.28.99.03.27-.25.5-.53.69-.85.1-.16.23-.29.39-.38.16-.09.34-.14.52-.15.2.05.4.08.6.09.35-.06.5-.49.54-.85s.05-.79.35-1,.64-.12.98-.09.76-.08.82-.41c0-.09,0-.18-.03-.26-.03-.08-.07-.16-.13-.23-.24-.32-.59-.55-.97-.64-.39-.1-.8-.06-1.16.1-.17-.44-.46-.83-.85-1.11-.38-.28-.84-.44-1.31-.46-.47-.02-.94.1-1.34.34s-.73.6-.94,1.03c-.31-.25-.67-.42-1.05-.49-.39-.08-.78-.06-1.16.05-.38.11-.72.31-1,.59-.28.28-.5.61-.62.99-.34-.07-.69-.03-1.01.1-.32.13-.6.36-.79.65s-.3.63-.31.98c0,.35.09.69.28.99-.25.14-.45.34-.6.59s-.23.52-.24.81c.03.57.61,1.11,1.15.92-.06.12-.09.24-.1.37,0,.13,0,.26.05.38.04.12.1.24.19.33.08.1.19.18.3.24.11.06.24.09.37.1.13,0,.26,0,.38-.05.12-.04.24-.1.33-.19s.18-.19.24-.3" style="fill:#263238;"/><path d="m48.02,2.37v.05s0,.1,0,.15c-.03.19-.08.37-.16.54-.13.27-.33.51-.57.7-.32.25-.7.38-1.1.39l.04-.06c.05.12.08.25.08.38,0,.13-.03.26-.08.38-.11.25-.25.49-.43.7-.08.13-.18.24-.29.35-.12.1-.27.16-.43.19-.16.03-.32.03-.48-.02-.16-.05-.3-.13-.42-.24l.1-.03c-.02.29-.1.57-.24.82-.13.25-.32.48-.54.66-.25.21-.56.33-.88.35-.31,0-.61-.04-.9-.14l.07-.04c-.12.34-.33.65-.6.89-.12.12-.27.21-.43.26s-.33.07-.5.06c-.29-.05-.56-.17-.78-.37-.22-.2-.38-.46-.45-.74l.07.03c-.28.17-.61.24-.93.19-.25-.03-.49-.11-.69-.25-.12-.09-.24-.19-.32-.32l-.08-.14c.12.16.26.3.43.41.2.13.42.2.65.23.31.04.62-.03.88-.2l.05-.03v.06c.07.27.22.51.43.7s.46.31.74.35c.15.02.31,0,.46-.05.15-.05.28-.14.39-.25.25-.23.44-.52.56-.85l.02-.05h.05c.28.09.56.14.86.14.3-.02.58-.13.81-.33.21-.17.39-.38.52-.62.13-.24.2-.5.22-.77v-.13l.09.09c.32.3.81.33,1.17.07.1-.1.19-.2.27-.32.17-.2.31-.43.42-.67.05-.11.08-.23.08-.35,0-.12-.02-.24-.06-.35l-.02-.06h.07c.38,0,.75-.12,1.06-.35.23-.17.43-.4.56-.65.13-.23.21-.48.25-.74h0Z" style="fill:#455a64;"/><path d="m49.38,12.16c-.08-.21-.14-.43-.18-.64-.1-.6,0-1.21.28-1.74.2-.37.48-.68.82-.92.39-.27.84-.44,1.32-.48.26-.02.51,0,.76.05.26.05.51.15.74.28.49.28.89.7,1.12,1.22.24.52.3,1.09.19,1.65-.05.26-.15.52-.28.75-.12.23-.27.43-.46.61-.34.34-.76.58-1.22.7-.4.1-.82.11-1.23.02-.59-.13-1.12-.46-1.51-.92-.14-.18-.26-.36-.37-.56.02.05.04.11.07.16.03.06.06.13.1.18.05.08.1.16.16.24.32.41.76.72,1.25.9.49.17,1.03.19,1.54.07.48-.12.91-.36,1.27-.7.19-.19.35-.4.48-.64.14-.24.24-.51.29-.78.12-.58.05-1.18-.2-1.72-.24-.54-.65-.98-1.16-1.27-.24-.14-.5-.23-.77-.29-.26-.06-.53-.07-.79-.04-.46.04-.9.19-1.28.45-.38.26-.7.61-.91,1.01-.29.55-.38,1.19-.26,1.8.02.1.04.19.07.28.02.07.04.13.07.2.02.04.05.09.08.13h0Zm-7.05.42c-.07-.21-.13-.43-.18-.64-.1-.6,0-1.21.29-1.74.19-.37.47-.68.81-.92.39-.28.84-.46,1.32-.5.25-.02.51,0,.76.05.26.05.51.15.75.28.49.28.89.7,1.12,1.22.24.52.3,1.09.19,1.65-.19.98-.91,1.76-1.86,2.04-.43.13-.88.14-1.31.04-.59-.13-1.13-.45-1.51-.92-.14-.18-.26-.36-.37-.55.02.06.04.11.07.16.03.06.06.13.1.18.05.08.1.16.17.24.68.87,1.82,1.25,2.88.94.44-.13.85-.36,1.17-.69.19-.18.35-.4.48-.63.14-.24.23-.51.29-.78.12-.58.05-1.18-.2-1.72-.25-.54-.66-.98-1.18-1.26-.24-.14-.5-.24-.77-.29-.26-.06-.53-.07-.79-.04-.49.04-.96.22-1.36.5-.35.25-.63.58-.83.96-.29.55-.38,1.19-.26,1.8.02.1.04.19.07.28.02.07.04.14.07.2.03.06.06.11.09.16h0Z" style="fill:#263238;"/><path d="m47.48,10.86c.25-.15.54-.23.83-.24s.58.04.85.16c0,0-.07-.08-.22-.15-.2-.09-.41-.13-.63-.12s-.43.07-.62.18c-.15.07-.21.15-.2.17h0Zm-7.88,2.25c.44-.17.86-.37,1.27-.6.43-.2.83-.43,1.22-.7-.44.17-.86.37-1.27.6-.42.2-.83.43-1.22.7Z" style="fill:#263238;"/></svg>