<?xml version="1.0" encoding="UTF-8"?><svg id="Layer_1" xmlns="http://www.w3.org/2000/svg" width="78.12" height="149.58" viewBox="0 0 78.12 149.58"><path d="m40.77,129.87c-.38.18-.72.44-1,.76-.28.32-.49.69-.63,1.1-.26.81-.34,1.67-.22,2.52.18,1.63,1.11,3.29,2.1,4.59,1.37-1.2,1.68-3.3,1.78-4.37.15-1.7-.61-4.85-2.03-4.6h0Zm-1.33,11.65c.09-.47.06-.95-.09-1.4-.15-.45-.42-.85-.77-1.17-.73-.62-1.68-.91-2.63-.82-.22,0-.44.04-.64.13-.2.09-.38.22-.52.39-.21.36-.21.81,0,1.17.21.36.5.65.86.85,1.18.75,2.47,1.25,3.8.85" style="fill:#a0d2be;"/><path d="m41.18,146.53c0-.11-.02-.22-.05-.33l-.17-.91c-.15-1.01-.47-1.99-.93-2.9-.48-.91-1.19-1.67-2.06-2.21-.26-.16-.55-.29-.84-.39-.08-.03-.16-.05-.24-.06-.03,0-.06,0-.08,0,.39.14.77.31,1.13.52.84.55,1.53,1.31,2.01,2.2.45.9.78,1.86.95,2.86l.2.9c.02.11.05.22.09.33h0Z" style="fill:#263238;"/><path d="m41.13,132.32s0,.1,0,.15c0,.11,0,.24-.03.42l-.06,1.56-.07,5.12.11,5.12.07,1.56c0,.17,0,.31.03.42,0,.05,0,.1.02.15,0-.05,0-.1,0-.15v-.42l-.04-1.56-.07-5.11.03-5.11.02-1.56v-.42c0-.05,0-.1-.02-.15h0Z" style="fill:#263238;"/><path d="m41.81,142.52c.17-.99.56-1.93,1.16-2.73.6-.8,1.37-1.46,2.27-1.9.46-.22,1.05-.36,1.43-.02s.29.95.1,1.43c-.4.99-1.09,1.84-1.97,2.44-.88.6-1.92.91-2.99.91" style="fill:#a0d2be;"/><rect x="30.73" y="14.81" width="38.05" height="2.89" transform="translate(-2.45 20.14) rotate(-22.35)" style="fill:#263238;"/><path d="m69.11,5.9l2.08,4.99-35.02,14.6-2.08-4.99,35.02-14.6Z" style="fill:#969696;"/><path d="m37.67,17.37l3.24,7.76,35.2-14.17-3.6-8.62-34.84,15.03h0Z" style="fill:#8591a0;"/><path d="m58.22,18.12l2.26-.92-3.45-8.35-2.24,1.1,3.44,8.18h0Z" style="fill:#6e7986;"/><path d="m41.69,24.72l2.4-.89-3.55-7.8-2.38,1.06,3.54,7.64Z" style="fill:#263238;"/><path d="m71.73,1.52l4.38,9.93-15.29,6.17-4.51-9.67s15.42-6.43,15.42-6.43Z" style="fill:#8591a0;"/><path d="m59.96,6.58l4.51,9.67-2.08.78-4.51-9.67,2.08-.78Zm12.65-6.58l5.5,11.81-2.47.93-5.5-11.81S72.62,0,72.62,0ZM8.61,47.73l1.65,16.21L.25,109.89l29.1,2.33-12.54-74.12s-8.18-1.02-8.2,9.63h0Z" style="fill:#263238;"/><path d="m44.28,128.83l1.68,18.99h-7.18l-3.17-18.99h8.66Z" style="fill:#f7a48b;"/><path d="m45.96,147.82s4.85.63,5.71,1.25l-12.7-.15-.19-1.1h7.18Z" style="fill:#f7a48b;"/><path d="m51.67,149.07v.51l-13.07-.14v-.55l13.07.18Z" style="fill:#42525a;"/><path d="m47.03,149.37c.07.03.28-.36.7-.67s.85-.4.84-.47-.5-.09-1,.27-.58.85-.53.87Zm-8.41-1.92c0,.07.87.24,1.87.72s1.7,1,1.75.97c-.44-.53-1-.94-1.64-1.2-.6-.33-1.28-.5-1.97-.49Zm.29-.31c2.36.05,4.71-.07,7.05-.36-1.17-.07-2.34-.05-3.51.05-1.19.01-2.37.11-3.54.3h0Zm-.84-2.5c1.28.36,2.58.64,3.89.84,1.3.28,2.61.48,3.93.59-1.28-.36-2.58-.64-3.89-.84-1.3-.28-2.61-.48-3.93-.59Z" style="fill:#42525a;"/><path d="m38.19,144.72c.33,0,.65-.07.95-.21.33-.13.65-.3.94-.5.18-.12.34-.24.5-.39.1-.08.17-.19.22-.31.03-.07.04-.15.03-.22,0-.07-.03-.15-.07-.21-.04-.06-.11-.12-.18-.15-.07-.03-.15-.04-.23-.03-.12.02-.24.05-.35.1-.2.08-.38.19-.56.31-.29.21-.55.47-.74.77-.2.26-.32.58-.34.91.04,0,.14-.35.5-.81.2-.27.45-.5.73-.68.16-.11.33-.2.5-.27.19-.09.4-.12.45,0,.03.08.03.16,0,.24s-.08.14-.15.19c-.15.14-.3.26-.46.38-.28.19-.57.36-.88.5l-.89.38h0Z" style="fill:#42525a;"/><path d="m38.26,144.91c.16-.29.22-.61.18-.94-.02-.34-.09-.68-.22-1-.08-.19-.18-.38-.3-.55-.06-.09-.13-.18-.21-.27-.05-.06-.1-.1-.17-.13s-.14-.05-.21-.05c-.08,0-.15.03-.21.07-.06.04-.11.1-.15.17-.06.12-.08.24-.07.37,0,.21.04.42.1.62.1.34.27.66.5.93.18.27.45.47.75.59,0-.04-.29-.23-.61-.69-.19-.27-.32-.57-.4-.89-.05-.19-.08-.38-.08-.57,0-.19.08-.36.19-.36s.27.19.38.34c.11.16.21.32.29.5.13.3.22.62.26.95.03.52-.06.9-.03.9h0Z" style="fill:#42525a;"/><path d="m37.3,147.86c.33-.43.57-.92.7-1.45.21-.51.3-1.06.28-1.62-.21.5-.38,1.01-.5,1.54-.2.49-.36,1-.47,1.52h0Z" style="fill:#42525a;"/><path d="m36.44,147.19c.98-.59,1.71-1.53,2.05-2.62-.07-.04-.42.63-1,1.34l-1.05,1.28h0Z" style="fill:#42525a;"/><path d="m21.45,123.77l-14.71,11.66-3.5-5.12,13.15-14.31s5.06,7.77,5.06,7.77Z" style="fill:#f7a48b;"/><path d="m7.78,135.71s2.26,4.33,2.24,5.4l-7.14-10.49.79-.79,4.11,5.88Z" style="fill:#f7a48b;"/><path d="m10.03,141.11l-.42.29-7.37-10.8.45-.32,7.34,10.82h0Z" style="fill:#42525a;"/><path d="m7.15,137.49c0,.07.45,0,.94.19s.81.46.87.42-.22-.47-.79-.66-1.05-.01-1.02.05h0Zm-3.26-8.01c-.07.03.3.86.48,1.94s.13,1.98.21,2.01c.29-1.35.05-2.76-.68-3.93v-.02h0Zm.41-.27c.55.91,1.17,1.79,1.86,2.6.63.87,1.32,1.69,2.07,2.46-.55-.92-1.18-1.79-1.87-2.61-.62-.87-1.31-1.69-2.06-2.45Zm1.59-1.78c.37,1.11.83,2.2,1.35,3.25.45,1.08.98,2.13,1.57,3.13-.37-1.11-.83-2.19-1.35-3.24-.45-1.08-.97-2.13-1.57-3.14Z" style="fill:#42525a;"/><path d="m5.89,127.58s.21.32.71.66c.29.2.61.37.94.5.2.08.4.14.6.19.13.03.26.03.38,0,.07-.02.14-.05.2-.1.06-.05.1-.11.13-.18.03-.07.03-.15.02-.23-.02-.08-.05-.15-.1-.21-.08-.09-.18-.17-.28-.23-.49-.31-1.06-.47-1.64-.45-.33-.02-.66.07-.94.25,0,.04.36-.09.94-.07.54.01,1.06.18,1.51.47.18.11.33.26.27.37-.05.07-.11.12-.19.14s-.16.02-.24-.01c-.19-.04-.39-.1-.57-.16-.32-.11-.63-.26-.93-.42l-.81-.53h0Z" style="fill:#42525a;"/><path d="m5.78,127.73c.32-.04.63-.17.87-.39.28-.21.52-.47.71-.77.11-.18.21-.36.28-.56.04-.1.07-.21.1-.32.02-.07.03-.14.02-.21s-.04-.14-.08-.2c-.05-.06-.11-.11-.19-.13s-.15-.04-.23-.02c-.12.02-.24.08-.34.15-.17.13-.32.28-.45.44-.23.27-.4.59-.5.93-.11.31-.13.64-.05.95l.22-.89c.12-.31.29-.59.5-.84.12-.14.26-.27.42-.39.15-.12.34-.14.41-.05s0,.33-.06.5-.14.34-.24.5c-.17.28-.38.54-.63.75-.42.4-.77.51-.75.55h0Z" style="fill:#42525a;"/><path d="m2.79,128.64c.55.03,1.1-.05,1.62-.25.55-.12,1.06-.36,1.51-.7l-3.11.95h-.02Z" style="fill:#42525a;"/><path d="m2.83,127.55c.51.27,1.07.41,1.65.4.57.07,1.15,0,1.68-.22,0-.07-.76,0-1.67-.03s-1.62-.22-1.66-.15Zm28.84-54.46s16.88,26.57,13.57,31.86c-.82,1.81-25.13,25.72-25.13,25.72l-6.83-11.69s17.58-16.29,17.41-17-16.87-31.89-16.87-31.89l17.85,3Z" style="fill:#42525a;"/><path id="B" d="m30.37,119.27l-4.8-10.54-5.52-11.83c3.36,4.85,6.21,10.04,8.53,15.47.9,2.21,1.5,4.53,1.79,6.9Z" style="fill:#42525a;"/><path id="B-2" d="m30.37,119.27l-4.8-10.54-5.52-11.83c3.36,4.85,6.21,10.04,8.53,15.47.9,2.21,1.5,4.53,1.79,6.9Z"/><path d="m33.66,86.86c-.06-.4-4.58-10.58-4.58-10.58l2.2-3.1.39-.08,2,13.77h0Z" style="fill:#42525a;"/><path d="m40.27,103.63c-4.63-12.24-11.2-27.35-11.2-27.35l1.54-3.76.39-.08,9.27,31.2Z" style="isolation:isolate; opacity:.4;"/><path d="m10.62,69.57l-.34,1.39c-1.01,4.08-.39,8.4,1.71,12.04l15.23,26.4c1.08,1.88,1.87,3.91,2.33,6.02l3.79,17.06s11.97.41,12.49,0-1.54-11.7-2.92-20.25c-1.04-6.45-9.67-26.47-13.85-35.93l2.59-3.19-4.51-.75-16.52-2.78h0Z" style="fill:#42525a;"/><path d="m33.35,132.46c.16.05.33.07.5.08l1.35.11,4.46.13,4.46-.12,1.35-.08c.17,0,.34-.02.5-.07-.17-.03-.33-.04-.5-.03h-1.35l-4.45.04c-1.74,0-3.31-.02-4.45-.05l-1.35-.04c-.17-.02-.34-.01-.51.02Zm-.65-3.21c0,.07,2.88.12,6.43.1l6.43-.15c0-.07-2.88-.12-6.43-.1l-6.43.15h0Zm-17.34-12.7c.06.17.15.33.26.47l.78,1.23,2.58,4.06,2.57,4.06.79,1.23c.09.16.2.3.32.43-.06-.18-.14-.34-.24-.5l-.72-1.27-2.51-4.11-2.65-4.01-.84-1.19c-.09-.15-.21-.28-.34-.4h0Z" style="fill:#263238;"/><path d="m20.82,129.65c.27-.49.47-1.02.58-1.57.2-.53.31-1.08.34-1.64-.27.49-.47,1.02-.58,1.57-.19.53-.31,1.08-.34,1.64Zm-1.06-.04c.27-.86.46-1.74.57-2.63.19-.88.29-1.77.31-2.67-.46,1.74-.75,3.51-.88,5.3Zm-1.38-1.98c.27-.75.48-1.51.63-2.29.23-.76.4-1.54.5-2.32-.34.72-.59,1.48-.74,2.26-.23.76-.36,1.56-.39,2.35h0Zm-1.19-2.75c.27-.71.46-1.46.57-2.21.19-.74.3-1.5.32-2.27-.27.72-.46,1.46-.57,2.22-.19.74-.3,1.5-.32,2.26Zm-1.53-2.27c.23-.72.41-1.45.54-2.19.22-.72.38-1.46.5-2.2-.35.68-.59,1.4-.73,2.15-.22.73-.32,1.48-.31,2.24h0Zm-1.35-1.93c.27-.56.47-1.16.57-1.78.19-.6.3-1.22.33-1.85-.46,1.16-.76,2.38-.9,3.63Zm25.28,8.43c.96.6,1.96,1.14,2.97,1.63.98.57,1.98,1.09,3.01,1.55-.25-.23-.52-.42-.82-.58-.5-.33-1.26-.75-2.09-1.19l-2.16-1.06c-.29-.16-.59-.27-.91-.35Zm-3.69.05c.29.24.61.45.94.62l2.39,1.27,2.47,1.12c.34.17.69.29,1.06.38-.31-.22-.65-.4-1-.54l-2.42-1.19-2.42-1.2c-.32-.19-.66-.34-1.01-.46h0Zm-2.8,0c.72.72,1.5,1.37,2.35,1.94.8.63,1.66,1.18,2.56,1.64-.76-.67-1.57-1.28-2.41-1.85-.8-.63-1.63-1.2-2.5-1.73h0Zm-.3,1.77c-.04.05.42.5,1.04.96.35.32.76.58,1.2.76-.29-.38-.65-.71-1.05-.96-.35-.32-.76-.58-1.19-.76Zm10.08-1.88c.47.42.99.78,1.54,1.07.52.36,1.09.64,1.68.85-.99-.78-2.07-1.43-3.23-1.92Zm-13.46-52.88c.17.57.39,1.13.64,1.67l1.6,4.01,1.51,4.01c.18.57.41,1.12.66,1.65-.02-.16-.05-.32-.1-.47l-.39-1.25-1.46-4.06-1.67-3.98-.56-1.18c-.06-.15-.13-.29-.22-.42h0Zm1.25,44.28c.01-.1.01-.2,0-.3l-.1-.84c-.05-.45-.13-.89-.23-1.33l-.39-1.74-.27-1c-.09-.35-.22-.7-.34-1.07-.22-.74-.53-1.5-.83-2.34-.71-1.76-1.51-3.48-2.4-5.15-1.65-3.02-3.47-5.94-5.45-8.75l-1.81-2.55-.5-.68c-.06-.08-.12-.16-.19-.23.04.09.09.18.15.26.12.18.28.42.47.71l1.74,2.59c1.43,2.19,3.44,5.24,5.36,8.75.89,1.66,1.69,3.37,2.4,5.12.31.81.62,1.58.85,2.32l.35,1.06c.1.33.19.67.28,1,.19.63.31,1.22.43,1.73.1.44.19.87.27,1.32l.15.83c.01.1.04.2.07.3h0Z" style="fill:#263238;"/><path d="m15.72,38.14l11.78,1s3.51.08,7.37,9.03l2.77,8.88-4.98,1.06v.5l-1,14.46-21.25-3.42c-.05-1.84,1-4.51,1.77-7.02-.8-1.98-2.83-10.63-2.83-14.79,0-8.9,6.38-9.67,6.38-9.67" style="fill:#fff;"/><path d="m13.27,118.96c.05.18.12.34.22.5l.68,1.28,2.41,4.14,2.49,4.08.75,1.24c.08.16.18.3.3.44-.05-.18-.12-.34-.22-.5l-.68-1.28-2.41-4.14-2.47-4.09-.75-1.24c-.09-.15-.2-.3-.32-.43h0Z" style="fill:#263238;"/><path d="m13.4,59.41c.52.25,1.08.4,1.66.44.56.11,1.15.11,1.71,0-.55-.14-1.11-.23-1.68-.27-.56-.11-1.12-.17-1.69-.17Z" style="fill:#fff;"/><path d="m32.27,60.02l-.42,14.37-6.37-35.75c2.12-.38,6.07,1.29,7.55,3.4,1.06,1.26.06,2.55,3.02,11.31l.92-1.62,2.72-3.3h1.18s-.32,9.49-3.9,10.26c-4.87,1.05-4.69.24-4.69.24" style="fill:#873795;"/><path d="m30.6,44.18c0,.21.02.41.07.61l.26,1.65.77,5.46.58,5.48.15,1.66c0,.21.03.41.08.61.02-.21.02-.41,0-.62l-.08-1.67-.5-5.52-.84-5.46-.34-1.64c-.03-.19-.09-.39-.16-.57h0Z" style="fill:#263238;"/><path d="m32.24,43.49c.03-.07-.96-.5-2.09-1.18l-2.01-1.33c1.1,1.2,2.51,2.07,4.08,2.51h.01Zm2.04,10.35c.25-.58.46-1.18.62-1.8.24-.59.42-1.19.56-1.81-.67,1.09-1.07,2.33-1.18,3.61Zm-5.17-5.65c-.07.7-.02,1.4.15,2.09.09.7.3,1.38.62,2.01-.08-.69-.21-1.37-.37-2.04-.09-.69-.22-1.38-.4-2.05h0Z" style="fill:#fff;"/><path d="m21.83,50.05l-3.38,19.84-7.34,41.03-11.11-1.05,10.55-46.02-1.62-16.78.99-4.96,11.91,7.94h0Z" style="fill:#873795;"/><path d="m10.72,110.6c.06,0,1.95-9.56,4.21-21.38l3.96-21.43c-.06-.01-1.95,9.56-4.2,21.38l-3.96,21.43h0Z" style="fill:#263238;"/><path d="m12.17,68.11c-.08-.5-.23-.99-.47-1.44-.16-.48-.4-.94-.7-1.35.23.99.62,1.93,1.17,2.79h0Zm-3.06,6.52c.06.04.61-.6,1.39-1.28l1.43-1.23c-.6.23-1.15.59-1.6,1.05-.5.4-.92.9-1.22,1.47h0Zm.69,8.79c-.2-.52-.43-1.02-.7-1.5-.19-.53-.41-1.04-.66-1.54.01.57.16,1.14.43,1.64.19.53.51,1.02.92,1.4h0Zm-2.4,7.06c1.07-.7,2.05-1.55,2.9-2.51-.55.32-1.06.71-1.51,1.16-.52.39-.99.84-1.4,1.35Zm-2.01,4.84c.16-1.41.15-2.83-.03-4.23-.12.7-.15,1.41-.11,2.12-.04.71.01,1.42.14,2.12Zm3.56,3.29c.14-.55.23-1.11.27-1.68.11-.56.18-1.12.19-1.69-.26.52-.41,1.08-.46,1.66-.11.57-.11,1.15,0,1.72Zm-3.67,4.19c1.07.01,2.12-.15,3.14-.47-.53-.05-1.07,0-1.59.11-.53.04-1.05.16-1.55.36Zm.61,5.58c-.53-1.09-1.2-2.1-2.01-3.01.22.57.52,1.1.89,1.58.31.52.68,1,1.11,1.43Z" style="fill:#fff;"/><path d="m33.34,54.11c.39-1.38.54-2.83.43-4.26-.15.7-.24,1.41-.28,2.12-.11.71-.16,1.42-.16,2.14Zm-1.57-.6c.42-.53.78-1.12,1.06-1.74.35-.58.62-1.2.81-1.85-.42.54-.77,1.12-1.06,1.74-.35.58-.62,1.2-.81,1.85h0Z" style="fill:#263238;"/><path d="m18.58,38.14c-4.56-.79-7.57,2.1-8.65,3.64-3.01,10.25,5.4,7.96,10.28,8.93,6.65,1.32,14.17,2.31,16.12,2.31,2.44,0,4.43-2.84,4.84-5.49.33-2.12.27-5.1.27-11.05h-8.04l.03,4.96c-3.93-1.21-10.3-2.51-14.85-3.31Z" style="fill:#873795;"/><path d="m40.27,53.24c.3-1.5.41-2.8.6-4.8-.48,5.04-6.8,4.8-8.7,4.2-.6,7.5,4.84,3.05,8.1.6h0Z"/><path d="m33.08,23.26c-.05-.45-.99-4.63.09-4.5.11.05.21.12.28.21.07.09.11.2.13.32l.58,4.12-.13-3.04c-.05-.45.21-.86.56-.77.1.05.19.13.25.22.06.09.1.2.12.31l.44,3.44-.09-2.24c-.04-.5.1-.72.38-.73s.43.29.46.48l.38,2.51c.35.35,1.51,1.42,1.38,2.4.02.03,1.79,10.17,1.79,10.5h-5.95l.28-8.6s-.29-1.98-1.28-2.98c-.45-.5-2.98-5.62-1.32-5.62l1.65,3.97h0Z" style="fill:#f7a58b;"/><path d="m11.24,48.73c.32.13,2.63.94,2.98.99l2.98.66,6.81,1.25,9.19,1.22,2.82.19c.34.03.68.03,1.03-.02-.33-.09-.67-.15-1.02-.17l-2.81-.36-9.07-1.13-5.95-.99-4.04-.85c-.3-.06-2.59-.81-2.9-.8h0Zm7.18-10.7c-.03.07,3.77.98,7.66,2.03s6.65,1.46,6.67,1.39-2.72-.6-6.61-1.65l-7.71-1.77Z" style="fill:#263238;"/><path d="m14.38,53.87c.15-1.36.13-2.73-.06-4.08-.11.67-.15,1.36-.1,2.04-.03.68.02,1.37.15,2.04Zm4.5,13.88c-.19-.53-.41-1.04-.67-1.53-.18-.53-.41-1.04-.66-1.54.02.57.17,1.13.43,1.64.19.54.5,1.03.9,1.43Zm6.12-.39l1.95-3.54c-.48.49-.88,1.05-1.17,1.67-.36.57-.63,1.21-.78,1.87h0Zm1.87-21.15c0,.62.05,1.23.15,1.84.03.62.1,1.23.23,1.84.16-1.24.03-2.5-.38-3.68h0Zm9.41-.13c.55-.6,1-1.27,1.33-2.01.41-.7.71-1.45.89-2.24-.41.69-.78,1.4-1.11,2.13-.41.69-.78,1.4-1.11,2.12h0Zm-5.39.39c.4.38.86.67,1.38.86.48.27,1.01.43,1.56.48-.46-.28-.94-.52-1.45-.7-.47-.26-.97-.47-1.48-.63h0Zm-21.18-.74c.06.04.61-.5,1.41-1.07s1.53-.87,1.51-.94c-.6.11-1.17.36-1.65.73-.52.31-.96.75-1.27,1.28h0Zm3.61,12.47c1.28.46,2.65.63,4.01.5-.66-.14-1.33-.24-2.01-.28-.66-.12-1.33-.2-2.01-.23h0Z" style="fill:#fff;"/><path d="m14.52,19.53c-.34-.62-.88-1.1-1.53-1.37s-1.37-.31-2.05-.11c-.67.22-1.27.6-1.76,1.1s-.85,1.11-1.06,1.79c-.4,1.35-.42,2.79-.07,4.15.22,1,.5,2.16-.15,2.93s-1.77.7-2.48,1.33c-.36.31-.57.76-.58,1.24-.01.48.17.94.51,1.27.34.34.8.52,1.28.5.48-.02.92-.23,1.24-.59,0,.7-.38,1.33-.6,2.01s-.25,1.51.29,1.95c.21.15.46.25.72.27s.52-.02.76-.13c.47-.22.9-.53,1.26-.91-.25.72-.25,1.5,0,2.22.13.35.35.67.64.92.29.24.64.41,1.01.48.47.03.94-.07,1.35-.31.41-.24.74-.59.95-1.01.4-.86.55-1.81.44-2.75-.1-1.47-.5-2.9-.66-4.35-.26-1.46-.07-2.96.54-4.31" style="fill:#1b232e;"/><path d="m6.02,28.08s.06.03.19,0c.09-.02.18-.05.26-.11.08-.06.14-.13.18-.21.15-.29.06-.64-.21-.83-.34-.26-.82-.23-1.13.07-.18.17-.3.39-.36.62s-.05.49.02.72c.07.26.21.51.41.69.22.2.5.31.8.33.3.02.61-.05.87-.19.28-.16.51-.38.67-.65.32-.57.43-1.23.32-1.87-.19-1.29-.81-2.37-.79-3.45-.01-.96.25-1.9.75-2.71.34-.55.78-1.03,1.3-1.41l.59-.4s-.06,0-.18.07c-.16.07-.32.15-.47.25-.56.36-1.04.84-1.4,1.4-.55.83-.84,1.81-.83,2.81,0,1.15.61,2.26.78,3.48.1.58,0,1.18-.29,1.7-.26.48-.77.76-1.31.74-.48-.03-.89-.37-1-.84-.07-.2-.08-.41-.04-.62s.15-.39.29-.54c.12-.12.28-.2.45-.21s.34.03.48.13c.22.15.31.43.21.67-.03.08-.09.14-.15.2-.06.05-.14.1-.22.12-.12.05-.19.03-.2.05h0Z" style="fill:#1b232e;"/><path d="m17.63,37.92l-.67-14.65,6.08-4.6,5.52,2.7s1.51,5.52,0,10.38c-1.22,3.93-3.22,2.9-3.22,2.9l.14,3.62s0,.21,0,.54v.66h-.66l-1.32-.33-3.88-.87c-.99-.33-1.41-.12-1.97-.35h0Z" style="fill:#f7a58b;"/><path d="m24.27,30.89c.02-.17.1-.33.24-.44.13-.11.29-.18.47-.2s.36.01.51.09c.14.09.25.21.32.36.06.14.08.3.04.45-.15.21-.25.42-.54.46h-.13c-.22.02-.43-.04-.61-.16-.09-.07-.17-.15-.22-.24-.05-.09-.07-.19-.07-.3h0Z" style="fill:#cd6c4f;"/><path d="m24.17,30.26c.06-.05.34.45.93.52s1.04-.26,1.09-.2-.06.16-.26.3c-.26.17-.58.24-.89.19-.3-.05-.57-.21-.75-.45-.13-.2-.15-.35-.12-.37h0Zm3.79-3.83c0,.08-.02.15-.07.22-.04.06-.1.11-.17.14-.07.03-.15.04-.22.02s-.14-.05-.2-.11-.09-.12-.11-.2,0-.15.02-.22.08-.13.14-.17c.18-.12.42-.06.54.12.04.06.06.13.06.2Zm.38-.41s-.33-.19-.75-.21-.73.18-.77.12.03-.11.17-.21c.18-.12.4-.18.62-.17.22.01.43.1.59.24.12.09.17.2.14.23Zm-4.83.41c0,.08-.02.15-.07.22-.04.06-.1.11-.17.14-.07.03-.15.04-.22.02s-.14-.05-.2-.11-.09-.12-.11-.2,0-.15.02-.22.08-.13.14-.17c.06-.04.14-.06.22-.07.1,0,.2.04.27.11s.11.17.11.27Zm.24-.41s-.34-.19-.75-.21-.73.18-.77.12.03-.11.17-.21c.18-.12.4-.18.62-.17.22.01.43.1.59.24.12.09.17.2.14.23Z" style="fill:#263238;"/><path d="m25.36,34.65c-1.43-.06-2.81-.53-3.99-1.35,0,0,.9,2.21,3.92,2.09l.07-.74Z" style="fill:#cd6c4f;"/><path d="m8.21,31.93c.38.01.76-.07,1.09-.25.5-.26.91-.66,1.19-1.15.35-.61.64-1.25.89-1.91l1.27-3.65.12-.42c0-.16.05-.31.07-.41,1.65-6.28,7.16-7.44,8.25-7.44s3.22-.64,6.2,2.46c.45.47.83.99,1.13,1.57.66.82,1.12,1.79,1.33,2.83.14.49.16,1,.07,1.5-.06,0-.07-.57-.3-1.44-.14-.51-.33-1.01-.58-1.48.26,1.16.15,2.37-.31,3.47l-1.07-.3-3.83-1.3c.35-1.18-.17-2.66-.45-3.35l-.03-.02c-.21,1.25-.82,2.4-1.73,3.28s-2.08,1.45-3.34,1.63l-.71,9.86c-5.1-1.09-4.98-7.91-4.95-9.29-.23.78-.53,1.68-.91,2.61-.25.68-.56,1.33-.93,1.94-.31.52-.77.93-1.32,1.19-.37.17-.78.23-1.19.18-.15-.01-.29-.07-.41-.16.14,0,.28.02.42.04h0Z" style="fill:#1b232e;"/><path d="m25.24,29.53c.22-.05.45-.08.68-.08.1,0,.21,0,.23-.09.01-.11,0-.23-.06-.34l-.29-.86-.5-1.58c-.08-.21-.13-.44-.15-.67.12.19.22.39.3.61l.5,1.56.27.86c.06.14.08.29.04.43-.03.07-.1.13-.18.15-.06,0-.12,0-.18,0-.22.03-.45.03-.67,0h0Z" style="fill:#263238;"/><path d="m16.64,29.38c.05-.51,0-1.02-.16-1.5-.08-.24-.22-.45-.41-.61s-.42-.27-.67-.32c-.29-.01-.58.08-.8.27s-.38.45-.42.74c-.07.59.22,1.16.74,1.44.26.13.54.21.83.22s.58-.05.84-.17" style="fill:#f7a48b;"/><path d="m15.76,28.94s-.17.04-.38-.02c-.13-.05-.25-.13-.33-.25-.08-.11-.12-.25-.12-.39-.02-.14.01-.29.1-.4.09-.08.21-.11.33-.1.23,0,.38.08.4.05s-.1-.14-.37-.22c-.17-.04-.36,0-.5.1-.08.08-.14.17-.17.27s-.05.21-.03.32c.01.21.09.41.23.56.11.13.27.21.44.24.29.03.43-.13.41-.15h0Z" style="fill:#cd6c4f;"/><path d="m14.87,29.36s-.23.16-.23.56c.01.23.11.46.28.62.11.1.24.17.38.22.14.04.29.06.43.04.15-.03.28-.09.4-.17.12-.09.22-.2.29-.33.11-.21.14-.46.07-.69-.12-.39-.38-.5-.39-.46s.16.18.22.5c.03.16.01.32-.05.46s-.17.26-.31.34-.29.11-.45.1-.31-.08-.42-.18c-.14-.12-.24-.29-.26-.47,0-.18.01-.35.05-.52h0Z" style="fill:#007dac;"/><path d="m16.63,27.28c.11.1.24.18.39.24.38.17.8.25,1.22.25.63,0,1.24-.16,1.8-.45.67-.36,1.24-.88,1.67-1.5.74-1.16,1.2-2.47,1.33-3.84l.12-1.22c.03-.15.03-.31,0-.46-.13.55-.23,1.1-.3,1.65-.19,1.32-.65,2.59-1.36,3.72-.4.59-.94,1.09-1.56,1.45-.52.28-1.1.44-1.69.47-.55,0-1.11-.1-1.62-.31h0Z" style="fill:#1b232e;"/><path d="m13.24,22.97c.07,0,.3-.87.89-1.81s1.28-1.54,1.23-1.6c-.61.35-1.11.85-1.44,1.47-.41.57-.64,1.24-.68,1.94h0Z" style="fill:#007dac;"/><path d="m24.07,47.79c.51.34,1.06.6,1.64.79.55.26,1.13.45,1.73.55-.51-.34-1.06-.6-1.64-.79-.55-.26-1.13-.45-1.73-.55Z" style="fill:#fff;"/></svg>